<svg width="600" height="471" viewBox="0 0 600 471" fill="none" xmlns="http://www.w3.org/2000/svg">
<g clip-path="url(#clip0_3034_10732)">
<rect width="600" height="471" rx="18" fill="white"/>
<path d="M240.48 342L236.176 330.08H237.856L241.504 340.56H241.168L244.816 330.08H246.496L242.208 342H240.48ZM247.824 342V333.376H249.312V342H247.824ZM247.824 332V330.08H249.312V332H247.824ZM255.589 342.192C254.757 342.192 254.015 341.995 253.365 341.6C252.714 341.205 252.202 340.667 251.829 339.984C251.455 339.291 251.269 338.517 251.269 337.664C251.269 336.8 251.45 336.032 251.813 335.36C252.186 334.688 252.687 334.16 253.317 333.776C253.957 333.381 254.671 333.184 255.461 333.184C256.101 333.184 256.666 333.301 257.157 333.536C257.658 333.76 258.079 334.069 258.421 334.464C258.773 334.848 259.039 335.291 259.221 335.792C259.413 336.283 259.509 336.795 259.509 337.328C259.509 337.445 259.498 337.579 259.477 337.728C259.466 337.867 259.45 338 259.429 338.128H252.357V336.848H258.565L257.861 337.424C257.957 336.869 257.903 336.373 257.701 335.936C257.498 335.499 257.199 335.152 256.805 334.896C256.41 334.64 255.962 334.512 255.461 334.512C254.959 334.512 254.501 334.64 254.085 334.896C253.669 335.152 253.343 335.52 253.109 336C252.885 336.469 252.794 337.029 252.837 337.68C252.794 338.309 252.89 338.864 253.125 339.344C253.37 339.813 253.711 340.181 254.149 340.448C254.597 340.704 255.082 340.832 255.605 340.832C256.181 340.832 256.666 340.699 257.061 340.432C257.455 340.165 257.775 339.824 258.021 339.408L259.269 340.048C259.098 340.443 258.831 340.805 258.469 341.136C258.117 341.456 257.695 341.712 257.205 341.904C256.725 342.096 256.186 342.192 255.589 342.192ZM263.433 342L260.473 333.376H262.121L264.473 340.592L263.897 340.576L266.201 333.376H267.609L269.913 340.576L269.337 340.592L271.705 333.376H273.337L270.377 342H268.953L266.681 334.8H267.129L264.857 342H263.433ZM277.609 342V330.08H282.617C283.332 330.08 283.945 330.208 284.457 330.464C284.98 330.72 285.38 331.083 285.657 331.552C285.945 332.011 286.089 332.56 286.089 333.2C286.089 333.787 285.935 334.32 285.625 334.8C285.327 335.269 284.884 335.637 284.297 335.904L284.281 335.312C284.793 335.504 285.215 335.76 285.545 336.08C285.887 336.389 286.143 336.752 286.313 337.168C286.484 337.573 286.569 338.005 286.569 338.464C286.569 339.563 286.217 340.427 285.513 341.056C284.809 341.685 283.849 342 282.633 342H277.609ZM279.177 340.56H282.697C283.391 340.56 283.945 340.373 284.361 340C284.777 339.627 284.985 339.12 284.985 338.48C284.985 337.84 284.777 337.333 284.361 336.96C283.945 336.576 283.391 336.384 282.697 336.384H279.177V340.56ZM279.177 334.976H282.585C283.161 334.976 283.625 334.811 283.977 334.48C284.329 334.139 284.505 333.707 284.505 333.184C284.505 332.64 284.329 332.224 283.977 331.936C283.625 331.648 283.161 331.504 282.585 331.504H279.177V334.976ZM292.479 342.192C291.647 342.192 290.906 341.995 290.255 341.6C289.605 341.205 289.093 340.667 288.719 339.984C288.346 339.291 288.159 338.517 288.159 337.664C288.159 336.8 288.341 336.032 288.703 335.36C289.077 334.688 289.578 334.16 290.207 333.776C290.847 333.381 291.562 333.184 292.351 333.184C292.991 333.184 293.557 333.301 294.047 333.536C294.549 333.76 294.97 334.069 295.311 334.464C295.663 334.848 295.93 335.291 296.111 335.792C296.303 336.283 296.399 336.795 296.399 337.328C296.399 337.445 296.389 337.579 296.367 337.728C296.357 337.867 296.341 338 296.319 338.128H289.247V336.848H295.455L294.751 337.424C294.847 336.869 294.794 336.373 294.591 335.936C294.389 335.499 294.09 335.152 293.695 334.896C293.301 334.64 292.853 334.512 292.351 334.512C291.85 334.512 291.391 334.64 290.975 334.896C290.559 335.152 290.234 335.52 289.999 336C289.775 336.469 289.685 337.029 289.727 337.68C289.685 338.309 289.781 338.864 290.015 339.344C290.261 339.813 290.602 340.181 291.039 340.448C291.487 340.704 291.973 340.832 292.495 340.832C293.071 340.832 293.557 340.699 293.951 340.432C294.346 340.165 294.666 339.824 294.911 339.408L296.159 340.048C295.989 340.443 295.722 340.805 295.359 341.136C295.007 341.456 294.586 341.712 294.095 341.904C293.615 342.096 293.077 342.192 292.479 342.192ZM298.34 342V333.376H299.796V335.056L299.556 334.912C299.769 334.368 300.11 333.947 300.58 333.648C301.06 333.339 301.62 333.184 302.26 333.184C302.878 333.184 303.428 333.323 303.908 333.6C304.398 333.877 304.782 334.261 305.06 334.752C305.348 335.243 305.492 335.797 305.492 336.416V342H303.988V336.896C303.988 336.416 303.902 336.011 303.732 335.68C303.561 335.349 303.316 335.093 302.996 334.912C302.686 334.72 302.329 334.624 301.924 334.624C301.518 334.624 301.156 334.72 300.836 334.912C300.526 335.093 300.281 335.355 300.1 335.696C299.918 336.027 299.828 336.427 299.828 336.896V342H298.34ZM311.589 342.192C310.757 342.192 310.015 341.995 309.365 341.6C308.714 341.205 308.202 340.667 307.829 339.984C307.455 339.291 307.269 338.517 307.269 337.664C307.269 336.8 307.45 336.032 307.813 335.36C308.186 334.688 308.687 334.16 309.317 333.776C309.957 333.381 310.671 333.184 311.461 333.184C312.101 333.184 312.666 333.301 313.157 333.536C313.658 333.76 314.079 334.069 314.421 334.464C314.773 334.848 315.039 335.291 315.221 335.792C315.413 336.283 315.509 336.795 315.509 337.328C315.509 337.445 315.498 337.579 315.477 337.728C315.466 337.867 315.45 338 315.429 338.128H308.357V336.848H314.565L313.861 337.424C313.957 336.869 313.903 336.373 313.701 335.936C313.498 335.499 313.199 335.152 312.805 334.896C312.41 334.64 311.962 334.512 311.461 334.512C310.959 334.512 310.501 334.64 310.085 334.896C309.669 335.152 309.343 335.52 309.109 336C308.885 336.469 308.794 337.029 308.837 337.68C308.794 338.309 308.89 338.864 309.125 339.344C309.37 339.813 309.711 340.181 310.149 340.448C310.597 340.704 311.082 340.832 311.605 340.832C312.181 340.832 312.666 340.699 313.061 340.432C313.455 340.165 313.775 339.824 314.021 339.408L315.269 340.048C315.098 340.443 314.831 340.805 314.469 341.136C314.117 341.456 313.695 341.712 313.205 341.904C312.725 342.096 312.186 342.192 311.589 342.192ZM318.361 342V334.8H316.713V333.376H318.361V332.768C318.361 332.149 318.494 331.627 318.761 331.2C319.038 330.773 319.401 330.448 319.849 330.224C320.308 330 320.814 329.888 321.369 329.888C321.486 329.888 321.614 329.899 321.753 329.92C321.902 329.931 322.025 329.947 322.121 329.968V331.296C322.036 331.275 321.934 331.264 321.817 331.264C321.7 331.253 321.609 331.248 321.545 331.248C321.054 331.248 320.649 331.365 320.329 331.6C320.02 331.835 319.865 332.224 319.865 332.768V333.376H324.345V334.8H319.865V342H318.361ZM323.417 342V333.376H324.921V342H323.417ZM330.484 342.096C329.641 342.096 328.991 341.856 328.532 341.376C328.084 340.896 327.86 340.219 327.86 339.344V334.8H326.292V333.376H326.612C326.996 333.376 327.3 333.259 327.524 333.024C327.748 332.789 327.86 332.48 327.86 332.096V331.392H329.348V333.376H331.284V334.8H329.348V339.296C329.348 339.584 329.391 339.835 329.476 340.048C329.572 340.261 329.727 340.432 329.94 340.56C330.153 340.677 330.436 340.736 330.788 340.736C330.863 340.736 330.953 340.731 331.06 340.72C331.177 340.709 331.284 340.699 331.38 340.688V342C331.241 342.032 331.087 342.053 330.916 342.064C330.745 342.085 330.601 342.096 330.484 342.096ZM336.412 342.192C335.548 342.192 334.796 341.979 334.156 341.552C333.516 341.125 333.063 340.549 332.796 339.824L333.98 339.248C334.225 339.76 334.561 340.165 334.988 340.464C335.415 340.763 335.889 340.912 336.412 340.912C336.881 340.912 337.271 340.8 337.58 340.576C337.889 340.352 338.044 340.059 338.044 339.696C338.044 339.44 337.969 339.237 337.82 339.088C337.681 338.928 337.511 338.805 337.308 338.72C337.105 338.624 336.919 338.555 336.748 338.512L335.452 338.144C334.673 337.92 334.103 337.6 333.74 337.184C333.388 336.768 333.212 336.283 333.212 335.728C333.212 335.216 333.34 334.773 333.596 334.4C333.863 334.016 334.22 333.717 334.668 333.504C335.127 333.291 335.639 333.184 336.204 333.184C336.961 333.184 337.639 333.376 338.236 333.76C338.844 334.144 339.276 334.683 339.532 335.376L338.316 335.936C338.124 335.488 337.836 335.136 337.452 334.88C337.068 334.613 336.636 334.48 336.156 334.48C335.719 334.48 335.372 334.592 335.116 334.816C334.86 335.029 334.732 335.301 334.732 335.632C334.732 335.877 334.796 336.08 334.924 336.24C335.052 336.389 335.207 336.507 335.388 336.592C335.569 336.667 335.745 336.731 335.916 336.784L337.324 337.2C338.028 337.403 338.572 337.717 338.956 338.144C339.351 338.571 339.548 339.083 339.548 339.68C339.548 340.16 339.415 340.592 339.148 340.976C338.881 341.36 338.513 341.659 338.044 341.872C337.575 342.085 337.031 342.192 336.412 342.192Z" fill="#43008F"/>
<path d="M355 339C354.417 339 353.833 338.775 353.392 338.333L347.958 332.9C347.717 332.658 347.717 332.258 347.958 332.017C348.2 331.775 348.6 331.775 348.842 332.017L354.275 337.45C354.675 337.85 355.325 337.85 355.725 337.45L361.158 332.017C361.4 331.775 361.8 331.775 362.042 332.017C362.283 332.258 362.283 332.658 362.042 332.9L356.608 338.333C356.167 338.775 355.583 339 355 339Z" fill="#43008F"/>
<rect x="28" y="381" width="544" height="40" rx="20" fill="#43008F"/>
<path d="M213.992 407.168C213.255 407.168 212.578 407.037 211.962 406.776C211.346 406.505 210.809 406.132 210.352 405.656C209.904 405.171 209.554 404.601 209.302 403.948C209.05 403.295 208.924 402.576 208.924 401.792C208.924 401.008 209.05 400.289 209.302 399.636C209.554 398.983 209.904 398.413 210.352 397.928C210.809 397.443 211.346 397.069 211.962 396.808C212.578 396.537 213.255 396.402 213.992 396.402C214.701 396.402 215.336 396.528 215.896 396.78C216.465 397.032 216.941 397.359 217.324 397.76C217.716 398.152 217.996 398.567 218.164 399.006L217.114 399.468C216.853 398.861 216.451 398.376 215.91 398.012C215.378 397.639 214.739 397.452 213.992 397.452C213.227 397.452 212.545 397.634 211.948 397.998C211.351 398.362 210.884 398.871 210.548 399.524C210.212 400.168 210.044 400.924 210.044 401.792C210.044 402.651 210.212 403.407 210.548 404.06C210.884 404.713 211.351 405.222 211.948 405.586C212.545 405.941 213.227 406.118 213.992 406.118C214.739 406.118 215.378 405.936 215.91 405.572C216.451 405.208 216.853 404.723 217.114 404.116L218.164 404.578C217.996 405.007 217.716 405.423 217.324 405.824C216.941 406.216 216.465 406.538 215.896 406.79C215.336 407.042 214.701 407.168 213.992 407.168ZM220.016 407V396.402H221.066V400.952L220.828 400.896C221.014 400.411 221.318 400.028 221.738 399.748C222.167 399.468 222.662 399.328 223.222 399.328C223.754 399.328 224.23 399.449 224.65 399.692C225.079 399.935 225.415 400.271 225.658 400.7C225.91 401.12 226.036 401.596 226.036 402.128V407H224.986V402.534C224.986 402.077 224.902 401.689 224.734 401.372C224.566 401.055 224.332 400.812 224.034 400.644C223.744 400.467 223.413 400.378 223.04 400.378C222.666 400.378 222.33 400.467 222.032 400.644C221.733 400.812 221.495 401.059 221.318 401.386C221.15 401.703 221.066 402.086 221.066 402.534V407H220.016ZM231.555 407.168C230.846 407.168 230.202 407 229.623 406.664C229.044 406.319 228.582 405.852 228.237 405.264C227.901 404.667 227.733 403.99 227.733 403.234C227.733 402.487 227.901 401.82 228.237 401.232C228.573 400.644 229.026 400.182 229.595 399.846C230.174 399.501 230.827 399.328 231.555 399.328C232.283 399.328 232.932 399.496 233.501 399.832C234.08 400.168 234.532 400.63 234.859 401.218C235.195 401.806 235.363 402.478 235.363 403.234C235.363 403.999 235.19 404.681 234.845 405.278C234.5 405.866 234.038 406.328 233.459 406.664C232.89 407 232.255 407.168 231.555 407.168ZM231.555 406.118C232.059 406.118 232.512 405.992 232.913 405.74C233.324 405.488 233.646 405.143 233.879 404.704C234.122 404.265 234.243 403.775 234.243 403.234C234.243 402.693 234.122 402.207 233.879 401.778C233.646 401.349 233.324 401.008 232.913 400.756C232.512 400.504 232.059 400.378 231.555 400.378C231.051 400.378 230.594 400.504 230.183 400.756C229.782 401.008 229.46 401.349 229.217 401.778C228.974 402.207 228.853 402.693 228.853 403.234C228.853 403.775 228.974 404.265 229.217 404.704C229.46 405.143 229.782 405.488 230.183 405.74C230.594 405.992 231.051 406.118 231.555 406.118ZM240.729 407.168C240.019 407.168 239.375 407 238.797 406.664C238.218 406.319 237.756 405.852 237.411 405.264C237.075 404.667 236.907 403.99 236.907 403.234C236.907 402.487 237.075 401.82 237.411 401.232C237.747 400.644 238.199 400.182 238.769 399.846C239.347 399.501 240.001 399.328 240.729 399.328C241.457 399.328 242.105 399.496 242.675 399.832C243.253 400.168 243.706 400.63 244.033 401.218C244.369 401.806 244.537 402.478 244.537 403.234C244.537 403.999 244.364 404.681 244.019 405.278C243.673 405.866 243.211 406.328 242.633 406.664C242.063 407 241.429 407.168 240.729 407.168ZM240.729 406.118C241.233 406.118 241.685 405.992 242.087 405.74C242.497 405.488 242.819 405.143 243.053 404.704C243.295 404.265 243.417 403.775 243.417 403.234C243.417 402.693 243.295 402.207 243.053 401.778C242.819 401.349 242.497 401.008 242.087 400.756C241.685 400.504 241.233 400.378 240.729 400.378C240.225 400.378 239.767 400.504 239.357 400.756C238.955 401.008 238.633 401.349 238.391 401.778C238.148 402.207 238.027 402.693 238.027 403.234C238.027 403.775 238.148 404.265 238.391 404.704C238.633 405.143 238.955 405.488 239.357 405.74C239.767 405.992 240.225 406.118 240.729 406.118ZM248.993 407.168C248.274 407.168 247.644 406.986 247.103 406.622C246.561 406.258 246.169 405.763 245.927 405.138L246.809 404.718C247.023 405.175 247.322 405.539 247.705 405.81C248.097 406.081 248.526 406.216 248.993 406.216C249.441 406.216 249.819 406.109 250.127 405.894C250.435 405.67 250.589 405.381 250.589 405.026C250.589 404.765 250.514 404.559 250.365 404.41C250.215 404.251 250.043 404.13 249.847 404.046C249.651 403.962 249.478 403.901 249.329 403.864L248.251 403.556C247.56 403.36 247.061 403.085 246.753 402.73C246.445 402.375 246.291 401.965 246.291 401.498C246.291 401.059 246.403 400.677 246.627 400.35C246.851 400.023 247.154 399.771 247.537 399.594C247.919 399.417 248.344 399.328 248.811 399.328C249.445 399.328 250.019 399.496 250.533 399.832C251.055 400.159 251.424 400.616 251.639 401.204L250.743 401.624C250.556 401.204 250.285 400.877 249.931 400.644C249.585 400.401 249.198 400.28 248.769 400.28C248.349 400.28 248.013 400.387 247.761 400.602C247.509 400.817 247.383 401.087 247.383 401.414C247.383 401.666 247.448 401.867 247.579 402.016C247.709 402.165 247.859 402.277 248.027 402.352C248.204 402.427 248.358 402.483 248.489 402.52L249.735 402.884C250.341 403.061 250.813 403.337 251.149 403.71C251.494 404.083 251.667 404.522 251.667 405.026C251.667 405.437 251.55 405.805 251.317 406.132C251.093 406.459 250.78 406.715 250.379 406.902C249.977 407.079 249.515 407.168 248.993 407.168ZM256.928 407.168C256.228 407.168 255.593 407 255.024 406.664C254.464 406.319 254.02 405.847 253.694 405.25C253.367 404.653 253.204 403.976 253.204 403.22C253.204 402.464 253.362 401.797 253.68 401.218C253.997 400.63 254.426 400.168 254.968 399.832C255.518 399.496 256.134 399.328 256.816 399.328C257.357 399.328 257.838 399.431 258.258 399.636C258.687 399.832 259.051 400.103 259.35 400.448C259.648 400.784 259.877 401.167 260.036 401.596C260.194 402.016 260.274 402.45 260.274 402.898C260.274 402.991 260.269 403.099 260.26 403.22C260.25 403.332 260.236 403.449 260.218 403.57H253.876V402.59H259.616L259.112 403.01C259.196 402.497 259.135 402.039 258.93 401.638C258.734 401.227 258.449 400.905 258.076 400.672C257.702 400.429 257.282 400.308 256.816 400.308C256.349 400.308 255.915 400.429 255.514 400.672C255.122 400.915 254.814 401.255 254.59 401.694C254.366 402.123 254.277 402.637 254.324 403.234C254.277 403.831 254.37 404.354 254.604 404.802C254.846 405.241 255.173 405.581 255.584 405.824C256.004 406.067 256.452 406.188 256.928 406.188C257.478 406.188 257.94 406.057 258.314 405.796C258.687 405.535 258.99 405.208 259.224 404.816L260.12 405.292C259.97 405.628 259.742 405.941 259.434 406.23C259.126 406.51 258.757 406.739 258.328 406.916C257.908 407.084 257.441 407.168 256.928 407.168ZM265.96 407V397.55H264V396.57H267.08V407H265.96ZM269.713 404.018V402.968H276.013V404.018H269.713ZM280.919 407V402.156L277.265 396.57H278.511L281.703 401.428H281.255L284.433 396.57H285.679L282.039 402.156V407H280.919ZM288.933 407.168C288.233 407.168 287.599 407 287.029 406.664C286.469 406.319 286.026 405.847 285.699 405.25C285.373 404.653 285.209 403.976 285.209 403.22C285.209 402.464 285.368 401.797 285.685 401.218C286.003 400.63 286.432 400.168 286.973 399.832C287.524 399.496 288.14 399.328 288.821 399.328C289.363 399.328 289.843 399.431 290.263 399.636C290.693 399.832 291.057 400.103 291.355 400.448C291.654 400.784 291.883 401.167 292.041 401.596C292.2 402.016 292.279 402.45 292.279 402.898C292.279 402.991 292.275 403.099 292.265 403.22C292.256 403.332 292.242 403.449 292.223 403.57H285.881V402.59H291.621L291.117 403.01C291.201 402.497 291.141 402.039 290.935 401.638C290.739 401.227 290.455 400.905 290.081 400.672C289.708 400.429 289.288 400.308 288.821 400.308C288.355 400.308 287.921 400.429 287.519 400.672C287.127 400.915 286.819 401.255 286.595 401.694C286.371 402.123 286.283 402.637 286.329 403.234C286.283 403.831 286.376 404.354 286.609 404.802C286.852 405.241 287.179 405.581 287.589 405.824C288.009 406.067 288.457 406.188 288.933 406.188C289.484 406.188 289.946 406.057 290.319 405.796C290.693 405.535 290.996 405.208 291.229 404.816L292.125 405.292C291.976 405.628 291.747 405.941 291.439 406.23C291.131 406.51 290.763 406.739 290.333 406.916C289.913 407.084 289.447 407.168 288.933 407.168ZM296.164 407.168C295.688 407.168 295.263 407.079 294.89 406.902C294.517 406.715 294.223 406.463 294.008 406.146C293.793 405.829 293.686 405.465 293.686 405.054C293.686 404.662 293.77 404.307 293.938 403.99C294.106 403.663 294.367 403.388 294.722 403.164C295.077 402.94 295.529 402.781 296.08 402.688L299.02 402.198V403.15L296.332 403.598C295.791 403.691 295.399 403.864 295.156 404.116C294.923 404.368 294.806 404.667 294.806 405.012C294.806 405.348 294.937 405.633 295.198 405.866C295.469 406.099 295.814 406.216 296.234 406.216C296.747 406.216 297.195 406.109 297.578 405.894C297.961 405.67 298.259 405.371 298.474 404.998C298.689 404.625 298.796 404.209 298.796 403.752V401.848C298.796 401.4 298.633 401.036 298.306 400.756C297.979 400.476 297.555 400.336 297.032 400.336C296.575 400.336 296.173 400.453 295.828 400.686C295.483 400.91 295.226 401.204 295.058 401.568L294.106 401.05C294.246 400.733 294.465 400.443 294.764 400.182C295.072 399.921 295.422 399.715 295.814 399.566C296.206 399.407 296.612 399.328 297.032 399.328C297.583 399.328 298.068 399.435 298.488 399.65C298.917 399.865 299.249 400.163 299.482 400.546C299.725 400.919 299.846 401.353 299.846 401.848V407H298.796V405.502L298.95 405.656C298.819 405.936 298.614 406.193 298.334 406.426C298.063 406.65 297.741 406.832 297.368 406.972C297.004 407.103 296.603 407.168 296.164 407.168ZM302.006 407V399.496H303.056V400.728L302.916 400.546C303.093 400.191 303.359 399.911 303.714 399.706C304.078 399.501 304.516 399.398 305.03 399.398H305.506V400.448H304.848C304.306 400.448 303.872 400.616 303.546 400.952C303.219 401.288 303.056 401.764 303.056 402.38V407H302.006ZM309.269 407V396.57H310.249L314.169 402.254H313.623L317.529 396.57H318.509V407H317.389V398.082L317.753 398.222L313.917 403.78H313.861L310.039 398.222L310.389 398.082V407H309.269ZM324.234 407.168C323.534 407.168 322.9 407 322.33 406.664C321.77 406.319 321.327 405.847 321 405.25C320.674 404.653 320.51 403.976 320.51 403.22C320.51 402.464 320.669 401.797 320.986 401.218C321.304 400.63 321.733 400.168 322.274 399.832C322.825 399.496 323.441 399.328 324.122 399.328C324.664 399.328 325.144 399.431 325.564 399.636C325.994 399.832 326.358 400.103 326.656 400.448C326.955 400.784 327.184 401.167 327.342 401.596C327.501 402.016 327.58 402.45 327.58 402.898C327.58 402.991 327.576 403.099 327.566 403.22C327.557 403.332 327.543 403.449 327.524 403.57H321.182V402.59H326.922L326.418 403.01C326.502 402.497 326.442 402.039 326.236 401.638C326.04 401.227 325.756 400.905 325.382 400.672C325.009 400.429 324.589 400.308 324.122 400.308C323.656 400.308 323.222 400.429 322.82 400.672C322.428 400.915 322.12 401.255 321.896 401.694C321.672 402.123 321.584 402.637 321.63 403.234C321.584 403.831 321.677 404.354 321.91 404.802C322.153 405.241 322.48 405.581 322.89 405.824C323.31 406.067 323.758 406.188 324.234 406.188C324.785 406.188 325.247 406.057 325.62 405.796C325.994 405.535 326.297 405.208 326.53 404.816L327.426 405.292C327.277 405.628 327.048 405.941 326.74 406.23C326.432 406.51 326.064 406.739 325.634 406.916C325.214 407.084 324.748 407.168 324.234 407.168ZM329.432 407V399.496H330.482V400.924L330.314 400.714C330.519 400.275 330.822 399.935 331.224 399.692C331.634 399.449 332.082 399.328 332.568 399.328C333.146 399.328 333.669 399.491 334.136 399.818C334.602 400.145 334.934 400.569 335.13 401.092L334.836 401.106C335.022 400.527 335.344 400.089 335.802 399.79C336.268 399.482 336.782 399.328 337.342 399.328C337.846 399.328 338.308 399.449 338.728 399.692C339.157 399.935 339.498 400.271 339.75 400.7C340.011 401.12 340.142 401.596 340.142 402.128V407H339.092V402.534C339.092 402.077 339.008 401.689 338.84 401.372C338.681 401.055 338.462 400.812 338.182 400.644C337.902 400.467 337.58 400.378 337.216 400.378C336.861 400.378 336.539 400.467 336.25 400.644C335.96 400.812 335.732 401.059 335.564 401.386C335.396 401.703 335.312 402.086 335.312 402.534V407H334.262V402.534C334.262 402.077 334.178 401.689 334.01 401.372C333.851 401.055 333.632 400.812 333.352 400.644C333.072 400.467 332.75 400.378 332.386 400.378C332.022 400.378 331.695 400.467 331.406 400.644C331.126 400.812 330.902 401.059 330.734 401.386C330.566 401.703 330.482 402.086 330.482 402.534V407H329.432ZM345.94 407.168C345.296 407.168 344.713 407.023 344.19 406.734C343.677 406.435 343.29 406.015 343.028 405.474L343.196 405.32V407H342.146V396.402H343.196V401.176L343.028 400.882C343.327 400.406 343.724 400.028 344.218 399.748C344.722 399.468 345.296 399.328 345.94 399.328C346.65 399.328 347.28 399.501 347.83 399.846C348.39 400.182 348.829 400.644 349.146 401.232C349.473 401.82 349.636 402.492 349.636 403.248C349.636 403.995 349.473 404.667 349.146 405.264C348.829 405.852 348.39 406.319 347.83 406.664C347.28 407 346.65 407.168 345.94 407.168ZM345.884 406.118C346.388 406.118 346.836 405.992 347.228 405.74C347.63 405.488 347.942 405.147 348.166 404.718C348.4 404.279 348.516 403.789 348.516 403.248C348.516 402.697 348.4 402.207 348.166 401.778C347.942 401.349 347.63 401.008 347.228 400.756C346.836 400.504 346.388 400.378 345.884 400.378C345.38 400.378 344.923 400.504 344.512 400.756C344.111 401.008 343.789 401.353 343.546 401.792C343.313 402.221 343.196 402.707 343.196 403.248C343.196 403.789 343.313 404.279 343.546 404.718C343.789 405.147 344.111 405.488 344.512 405.74C344.923 405.992 345.38 406.118 345.884 406.118ZM354.9 407.168C354.2 407.168 353.566 407 352.996 406.664C352.436 406.319 351.993 405.847 351.666 405.25C351.34 404.653 351.176 403.976 351.176 403.22C351.176 402.464 351.335 401.797 351.652 401.218C351.97 400.63 352.399 400.168 352.94 399.832C353.491 399.496 354.107 399.328 354.788 399.328C355.33 399.328 355.81 399.431 356.23 399.636C356.66 399.832 357.024 400.103 357.322 400.448C357.621 400.784 357.85 401.167 358.008 401.596C358.167 402.016 358.246 402.45 358.246 402.898C358.246 402.991 358.242 403.099 358.232 403.22C358.223 403.332 358.209 403.449 358.19 403.57H351.848V402.59H357.588L357.084 403.01C357.168 402.497 357.108 402.039 356.902 401.638C356.706 401.227 356.422 400.905 356.048 400.672C355.675 400.429 355.255 400.308 354.788 400.308C354.322 400.308 353.888 400.429 353.486 400.672C353.094 400.915 352.786 401.255 352.562 401.694C352.338 402.123 352.25 402.637 352.296 403.234C352.25 403.831 352.343 404.354 352.576 404.802C352.819 405.241 353.146 405.581 353.556 405.824C353.976 406.067 354.424 406.188 354.9 406.188C355.451 406.188 355.913 406.057 356.286 405.796C356.66 405.535 356.963 405.208 357.196 404.816L358.092 405.292C357.943 405.628 357.714 405.941 357.406 406.23C357.098 406.51 356.73 406.739 356.3 406.916C355.88 407.084 355.414 407.168 354.9 407.168ZM360.098 407V399.496H361.148V400.728L361.008 400.546C361.185 400.191 361.451 399.911 361.806 399.706C362.17 399.501 362.608 399.398 363.122 399.398H363.598V400.448H362.94C362.398 400.448 361.964 400.616 361.638 400.952C361.311 401.288 361.148 401.764 361.148 402.38V407H360.098ZM367.432 407.168C366.713 407.168 366.083 406.986 365.542 406.622C365.001 406.258 364.609 405.763 364.366 405.138L365.248 404.718C365.463 405.175 365.761 405.539 366.144 405.81C366.536 406.081 366.965 406.216 367.432 406.216C367.88 406.216 368.258 406.109 368.566 405.894C368.874 405.67 369.028 405.381 369.028 405.026C369.028 404.765 368.953 404.559 368.804 404.41C368.655 404.251 368.482 404.13 368.286 404.046C368.09 403.962 367.917 403.901 367.768 403.864L366.69 403.556C365.999 403.36 365.5 403.085 365.192 402.73C364.884 402.375 364.73 401.965 364.73 401.498C364.73 401.059 364.842 400.677 365.066 400.35C365.29 400.023 365.593 399.771 365.976 399.594C366.359 399.417 366.783 399.328 367.25 399.328C367.885 399.328 368.459 399.496 368.972 399.832C369.495 400.159 369.863 400.616 370.078 401.204L369.182 401.624C368.995 401.204 368.725 400.877 368.37 400.644C368.025 400.401 367.637 400.28 367.208 400.28C366.788 400.28 366.452 400.387 366.2 400.602C365.948 400.817 365.822 401.087 365.822 401.414C365.822 401.666 365.887 401.867 366.018 402.016C366.149 402.165 366.298 402.277 366.466 402.352C366.643 402.427 366.797 402.483 366.928 402.52L368.174 402.884C368.781 403.061 369.252 403.337 369.588 403.71C369.933 404.083 370.106 404.522 370.106 405.026C370.106 405.437 369.989 405.805 369.756 406.132C369.532 406.459 369.219 406.715 368.818 406.902C368.417 407.079 367.955 407.168 367.432 407.168ZM371.951 407V396.402H373.001V400.952L372.763 400.896C372.95 400.411 373.253 400.028 373.673 399.748C374.102 399.468 374.597 399.328 375.157 399.328C375.689 399.328 376.165 399.449 376.585 399.692C377.014 399.935 377.35 400.271 377.593 400.7C377.845 401.12 377.971 401.596 377.971 402.128V407H376.921V402.534C376.921 402.077 376.837 401.689 376.669 401.372C376.501 401.055 376.268 400.812 375.969 400.644C375.68 400.467 375.348 400.378 374.975 400.378C374.602 400.378 374.266 400.467 373.967 400.644C373.668 400.812 373.43 401.059 373.253 401.386C373.085 401.703 373.001 402.086 373.001 402.534V407H371.951ZM379.976 407V399.496H381.026V407H379.976ZM379.976 398.11V396.57H381.026V398.11H379.976ZM383.176 409.8V399.496H384.226V401.176L384.058 400.882C384.356 400.406 384.753 400.028 385.248 399.748C385.752 399.468 386.326 399.328 386.97 399.328C387.679 399.328 388.309 399.501 388.86 399.846C389.42 400.182 389.858 400.644 390.176 401.232C390.502 401.82 390.666 402.492 390.666 403.248C390.666 403.995 390.502 404.667 390.176 405.264C389.858 405.852 389.42 406.319 388.86 406.664C388.309 407 387.679 407.168 386.97 407.168C386.326 407.168 385.742 407.023 385.22 406.734C384.706 406.435 384.319 406.015 384.058 405.474L384.226 405.32V409.8H383.176ZM386.914 406.118C387.418 406.118 387.866 405.992 388.258 405.74C388.659 405.488 388.972 405.147 389.196 404.718C389.429 404.279 389.546 403.789 389.546 403.248C389.546 402.697 389.429 402.207 389.196 401.778C388.972 401.349 388.659 401.008 388.258 400.756C387.866 400.504 387.418 400.378 386.914 400.378C386.41 400.378 385.952 400.504 385.542 400.756C385.14 401.008 384.818 401.353 384.576 401.792C384.342 402.221 384.226 402.707 384.226 403.248C384.226 403.789 384.342 404.279 384.576 404.718C384.818 405.147 385.14 405.488 385.542 405.74C385.952 405.992 386.41 406.118 386.914 406.118Z" fill="white"/>
<rect opacity="0.4" x="28" y="32" width="79" height="29" rx="4" fill="#F2E7FF"/>
<path d="M44.6001 52.168C43.8721 52.168 43.1908 52.0373 42.5561 51.776C41.9308 51.5053 41.3801 51.132 40.9041 50.656C40.4281 50.1707 40.0548 49.6013 39.7841 48.948C39.5134 48.2853 39.3781 47.562 39.3781 46.778C39.3781 45.994 39.5134 45.2753 39.7841 44.622C40.0548 43.9593 40.4281 43.39 40.9041 42.914C41.3801 42.4287 41.9308 42.0553 42.5561 41.794C43.1908 41.5327 43.8721 41.402 44.6001 41.402C45.3281 41.402 46.0048 41.5373 46.6301 41.808C47.2648 42.0693 47.8201 42.4427 48.2961 42.928C48.7721 43.404 49.1454 43.9687 49.4161 44.622C49.6868 45.2753 49.8221 45.994 49.8221 46.778C49.8221 47.562 49.6868 48.2853 49.4161 48.948C49.1454 49.6013 48.7721 50.1707 48.2961 50.656C47.8201 51.132 47.2648 51.5053 46.6301 51.776C46.0048 52.0373 45.3281 52.168 44.6001 52.168ZM44.6001 51.118C45.2068 51.118 45.7574 51.006 46.2521 50.782C46.7561 50.558 47.1901 50.2453 47.5541 49.844C47.9181 49.4427 48.1981 48.9807 48.3941 48.458C48.5994 47.9353 48.7021 47.3753 48.7021 46.778C48.7021 46.19 48.5994 45.6347 48.3941 45.112C48.1981 44.5893 47.9181 44.1273 47.5541 43.726C47.1901 43.3247 46.7561 43.012 46.2521 42.788C45.7574 42.564 45.2068 42.452 44.6001 42.452C43.9934 42.452 43.4381 42.564 42.9341 42.788C42.4394 43.012 42.0101 43.3247 41.6461 43.726C41.2821 44.1273 40.9974 44.5893 40.7921 45.112C40.5961 45.6347 40.4981 46.19 40.4981 46.778C40.4981 47.3753 40.5961 47.9353 40.7921 48.458C40.9974 48.9807 41.2821 49.4427 41.6461 49.844C42.0101 50.2453 42.4441 50.558 42.9481 50.782C43.4521 51.006 44.0028 51.118 44.6001 51.118ZM51.8231 54.8V44.496H52.8731V46.176L52.7051 45.882C53.0038 45.406 53.4005 45.028 53.8951 44.748C54.3991 44.468 54.9731 44.328 55.6171 44.328C56.3265 44.328 56.9565 44.5007 57.5071 44.846C58.0671 45.182 58.5058 45.644 58.8231 46.232C59.1498 46.82 59.3131 47.492 59.3131 48.248C59.3131 48.9947 59.1498 49.6667 58.8231 50.264C58.5058 50.852 58.0671 51.3187 57.5071 51.664C56.9565 52 56.3265 52.168 55.6171 52.168C54.9731 52.168 54.3898 52.0233 53.8671 51.734C53.3538 51.4353 52.9665 51.0153 52.7051 50.474L52.8731 50.32V54.8H51.8231ZM55.5611 51.118C56.0651 51.118 56.5131 50.992 56.9051 50.74C57.3065 50.488 57.6191 50.1473 57.8431 49.718C58.0765 49.2793 58.1931 48.7893 58.1931 48.248C58.1931 47.6973 58.0765 47.2073 57.8431 46.778C57.6191 46.3487 57.3065 46.008 56.9051 45.756C56.5131 45.504 56.0651 45.378 55.5611 45.378C55.0571 45.378 54.5998 45.504 54.1891 45.756C53.7878 46.008 53.4658 46.3533 53.2231 46.792C52.9898 47.2213 52.8731 47.7067 52.8731 48.248C52.8731 48.7893 52.9898 49.2793 53.2231 49.718C53.4658 50.1473 53.7878 50.488 54.1891 50.74C54.5998 50.992 55.0571 51.118 55.5611 51.118ZM63.8943 52.084C63.2223 52.084 62.7043 51.888 62.3403 51.496C61.9763 51.104 61.7943 50.544 61.7943 49.816V45.546H60.4083V44.496H60.7583C61.0756 44.496 61.3276 44.3933 61.5143 44.188C61.701 43.9733 61.7943 43.7073 61.7943 43.39V42.76H62.8443V44.496H64.4963V45.546H62.8443V49.816C62.8443 50.068 62.8816 50.292 62.9563 50.488C63.031 50.6747 63.157 50.824 63.3343 50.936C63.521 51.048 63.7683 51.104 64.0763 51.104C64.151 51.104 64.2396 51.0993 64.3423 51.09C64.445 51.0807 64.5336 51.0713 64.6083 51.062V52C64.4963 52.028 64.3703 52.0467 64.2303 52.056C64.0903 52.0747 63.9783 52.084 63.8943 52.084ZM66.452 52V44.496H67.502V52H66.452ZM66.452 43.11V41.57H67.502V43.11H66.452ZM73.1652 52.168C72.4559 52.168 71.8119 52 71.2332 51.664C70.6546 51.3187 70.1926 50.852 69.8472 50.264C69.5112 49.6667 69.3432 48.99 69.3432 48.234C69.3432 47.4873 69.5112 46.82 69.8472 46.232C70.1832 45.644 70.6359 45.182 71.2052 44.846C71.7839 44.5007 72.4372 44.328 73.1652 44.328C73.8932 44.328 74.5419 44.496 75.1112 44.832C75.6899 45.168 76.1426 45.63 76.4692 46.218C76.8052 46.806 76.9732 47.478 76.9732 48.234C76.9732 48.9993 76.8006 49.6807 76.4552 50.278C76.1099 50.866 75.6479 51.328 75.0692 51.664C74.4999 52 73.8652 52.168 73.1652 52.168ZM73.1652 51.118C73.6692 51.118 74.1219 50.992 74.5232 50.74C74.9339 50.488 75.2559 50.1427 75.4892 49.704C75.7319 49.2653 75.8532 48.7753 75.8532 48.234C75.8532 47.6927 75.7319 47.2073 75.4892 46.778C75.2559 46.3487 74.9339 46.008 74.5232 45.756C74.1219 45.504 73.6692 45.378 73.1652 45.378C72.6612 45.378 72.2039 45.504 71.7932 45.756C71.3919 46.008 71.0699 46.3487 70.8272 46.778C70.5846 47.2073 70.4632 47.6927 70.4632 48.234C70.4632 48.7753 70.5846 49.2653 70.8272 49.704C71.0699 50.1427 71.3919 50.488 71.7932 50.74C72.2039 50.992 72.6612 51.118 73.1652 51.118ZM78.8251 52V44.496H79.8751V45.952L79.6371 45.896C79.8237 45.4107 80.1271 45.028 80.5471 44.748C80.9764 44.468 81.4711 44.328 82.0311 44.328C82.5631 44.328 83.0391 44.4493 83.4591 44.692C83.8884 44.9347 84.2244 45.2707 84.4671 45.7C84.7191 46.12 84.8451 46.596 84.8451 47.128V52H83.7951V47.534C83.7951 47.0767 83.7111 46.6893 83.5431 46.372C83.3844 46.0547 83.1557 45.812 82.8571 45.644C82.5677 45.4667 82.2317 45.378 81.8491 45.378C81.4664 45.378 81.1257 45.4667 80.8271 45.644C80.5284 45.812 80.2951 46.0593 80.1271 46.386C79.9591 46.7033 79.8751 47.086 79.8751 47.534V52H78.8251ZM88.9634 52V51.3L91.8754 48.094C92.4447 47.4687 92.9067 46.9507 93.2614 46.54C93.6254 46.1293 93.896 45.756 94.0734 45.42C94.2507 45.084 94.3394 44.72 94.3394 44.328C94.3394 43.7027 94.1574 43.222 93.7934 42.886C93.4294 42.55 92.944 42.382 92.3374 42.382C91.712 42.382 91.1847 42.5593 90.7554 42.914C90.3354 43.2687 90.0507 43.7633 89.9014 44.398L88.8794 44.174C89.0007 43.6047 89.22 43.1147 89.5374 42.704C89.8547 42.2933 90.2514 41.976 90.7274 41.752C91.2034 41.5187 91.7354 41.402 92.3234 41.402C92.9487 41.402 93.4947 41.528 93.9614 41.78C94.428 42.032 94.792 42.3773 95.0534 42.816C95.324 43.2547 95.4594 43.7587 95.4594 44.328C95.4594 44.72 95.3754 45.098 95.2074 45.462C95.0487 45.826 94.806 46.218 94.4794 46.638C94.1527 47.058 93.7327 47.548 93.2194 48.108L90.5734 51.02H95.7394V52H88.9634Z" fill="#232324"/>
<path d="M31.56 100V86.8H28.74V85.1H33.54V100H31.56ZM37.3767 95.86V94.12H46.3767V95.86H37.3767ZM53.4972 100V93.18L48.3372 85.1H50.5572L54.8772 91.88H54.0772L58.3772 85.1H60.5972L55.4772 93.18V100H53.4972ZM62.4725 100V85.1H72.1725V86.9H64.4325V91.62H71.7725V93.42H64.4325V98.2H72.1725V100H62.4725ZM73.1614 100L78.5014 85.1H80.8214L86.1614 100H84.0614L82.8414 96.5H76.4814L75.2614 100H73.1614ZM77.1014 94.7H82.2214L79.3814 86.52H79.9414L77.1014 94.7ZM88.0389 100V85.1H93.2989C94.2856 85.1 95.1522 85.2867 95.8989 85.66C96.6456 86.0333 97.2256 86.5667 97.6389 87.26C98.0656 87.9533 98.2789 88.7667 98.2789 89.7C98.2789 90.7533 98.0122 91.6467 97.4789 92.38C96.9456 93.1133 96.2256 93.64 95.3189 93.96L98.7789 100H96.4989L92.8589 93.54L94.1589 94.3H89.9989V100H88.0389ZM89.9989 92.5H93.3589C93.9456 92.5 94.4589 92.3867 94.8989 92.16C95.3389 91.9333 95.6789 91.6067 95.9189 91.18C96.1722 90.7533 96.2989 90.26 96.2989 89.7C96.2989 89.1267 96.1722 88.6333 95.9189 88.22C95.6789 87.7933 95.3389 87.4667 94.8989 87.24C94.4589 87.0133 93.9456 86.9 93.3589 86.9H89.9989V92.5ZM104.465 100V85.1H106.265L111.845 93.04H110.925L116.465 85.1H118.265V100H116.285V87.58L116.985 87.8L111.445 95.6H111.285L105.805 87.8L106.425 87.58V100H104.465ZM121.574 100V85.1H131.274V86.9H123.534V91.62H130.874V93.42H123.534V98.2H131.274V100H121.574ZM133.703 100V85.1H135.503L141.083 93.04H140.163L145.703 85.1H147.503V100H145.523V87.58L146.223 87.8L140.683 95.6H140.523L135.043 87.8L135.663 87.58V100H133.703ZM150.812 100V85.1H157.072C157.966 85.1 158.732 85.26 159.372 85.58C160.026 85.9 160.526 86.3533 160.872 86.94C161.232 87.5133 161.412 88.2 161.412 89C161.412 89.7333 161.219 90.4 160.832 91C160.459 91.5867 159.906 92.0467 159.172 92.38L159.152 91.64C159.792 91.88 160.319 92.2 160.732 92.6C161.159 92.9867 161.479 93.44 161.692 93.96C161.906 94.4667 162.012 95.0067 162.012 95.58C162.012 96.9533 161.572 98.0333 160.692 98.82C159.812 99.6067 158.612 100 157.092 100H150.812ZM152.772 98.2H157.172C158.039 98.2 158.732 97.9667 159.252 97.5C159.772 97.0333 160.032 96.4 160.032 95.6C160.032 94.8 159.772 94.1667 159.252 93.7C158.732 93.22 158.039 92.98 157.172 92.98H152.772V98.2ZM152.772 91.22H157.032C157.752 91.22 158.332 91.0133 158.772 90.6C159.212 90.1733 159.432 89.6333 159.432 88.98C159.432 88.3 159.212 87.78 158.772 87.42C158.332 87.06 157.752 86.88 157.032 86.88H152.772V91.22ZM164.66 100V85.1H174.36V86.9H166.62V91.62H173.96V93.42H166.62V98.2H174.36V100H164.66ZM176.789 100V85.1H182.049C183.036 85.1 183.902 85.2867 184.649 85.66C185.396 86.0333 185.976 86.5667 186.389 87.26C186.816 87.9533 187.029 88.7667 187.029 89.7C187.029 90.7533 186.762 91.6467 186.229 92.38C185.696 93.1133 184.976 93.64 184.069 93.96L187.529 100H185.249L181.609 93.54L182.909 94.3H178.749V100H176.789ZM178.749 92.5H182.109C182.696 92.5 183.209 92.3867 183.649 92.16C184.089 91.9333 184.429 91.6067 184.669 91.18C184.922 90.7533 185.049 90.26 185.049 89.7C185.049 89.1267 184.922 88.6333 184.669 88.22C184.429 87.7933 184.089 87.4667 183.649 87.24C183.209 87.0133 182.696 86.9 182.109 86.9H178.749V92.5ZM194.878 100.24C193.931 100.24 193.064 100.067 192.278 99.72C191.491 99.36 190.824 98.8733 190.278 98.26C189.731 97.6467 189.338 96.96 189.098 96.2L190.798 95.5C191.158 96.46 191.691 97.2 192.398 97.72C193.118 98.2267 193.958 98.48 194.918 98.48C195.504 98.48 196.018 98.3867 196.458 98.2C196.898 98.0133 197.238 97.7533 197.478 97.42C197.731 97.0733 197.858 96.6733 197.858 96.22C197.858 95.5933 197.678 95.1 197.318 94.74C196.971 94.3667 196.458 94.0867 195.778 93.9L193.038 93.06C191.958 92.7267 191.131 92.2 190.558 91.48C189.984 90.76 189.698 89.9333 189.698 89C189.698 88.1867 189.891 87.4733 190.278 86.86C190.678 86.2333 191.224 85.7467 191.918 85.4C192.624 85.04 193.424 84.86 194.318 84.86C195.211 84.86 196.018 85.02 196.738 85.34C197.471 85.66 198.091 86.0933 198.598 86.64C199.104 87.1733 199.478 87.7867 199.718 88.48L198.038 89.18C197.718 88.34 197.238 87.7067 196.598 87.28C195.958 86.84 195.204 86.62 194.338 86.62C193.804 86.62 193.331 86.7133 192.918 86.9C192.518 87.0733 192.204 87.3333 191.978 87.68C191.764 88.0133 191.658 88.4133 191.658 88.88C191.658 89.4267 191.831 89.9133 192.178 90.34C192.524 90.7667 193.051 91.0933 193.758 91.32L196.258 92.06C197.431 92.42 198.318 92.9333 198.918 93.6C199.518 94.2667 199.818 95.0933 199.818 96.08C199.818 96.8933 199.604 97.6133 199.178 98.24C198.764 98.8667 198.184 99.36 197.438 99.72C196.704 100.067 195.851 100.24 194.878 100.24ZM202.687 100V85.1H204.647V91.74H212.107V85.1H214.087V100H212.107V93.54H204.647V100H202.687ZM217.394 100V85.1H219.354V100H217.394ZM222.668 100V85.1H227.928C228.914 85.1 229.781 85.2867 230.528 85.66C231.274 86.0333 231.854 86.5667 232.268 87.26C232.694 87.9533 232.908 88.7667 232.908 89.7C232.908 90.6333 232.694 91.4467 232.268 92.14C231.854 92.82 231.274 93.3533 230.528 93.74C229.794 94.1133 228.928 94.3 227.928 94.3H224.628V100H222.668ZM224.628 92.5H227.988C228.588 92.5 229.108 92.3867 229.548 92.16C229.988 91.9333 230.328 91.6067 230.568 91.18C230.808 90.7533 230.928 90.26 230.928 89.7C230.928 89.1267 230.808 88.6333 230.568 88.22C230.328 87.7933 229.988 87.4667 229.548 87.24C229.108 87.0133 228.588 86.9 227.988 86.9H224.628V92.5Z" fill="#232324"/>
<path d="M36.814 160.312C35.5833 160.312 34.4567 160.087 33.434 159.636C32.4113 159.168 31.5447 158.535 30.834 157.738C30.1233 156.941 29.612 156.048 29.3 155.06L31.51 154.15C31.978 155.398 32.6713 156.36 33.59 157.036C34.526 157.695 35.618 158.024 36.866 158.024C37.6287 158.024 38.296 157.903 38.868 157.66C39.44 157.417 39.882 157.079 40.194 156.646C40.5233 156.195 40.688 155.675 40.688 155.086C40.688 154.271 40.454 153.63 39.986 153.162C39.5353 152.677 38.868 152.313 37.984 152.07L34.422 150.978C33.018 150.545 31.9433 149.86 31.198 148.924C30.4527 147.988 30.08 146.913 30.08 145.7C30.08 144.643 30.3313 143.715 30.834 142.918C31.354 142.103 32.0647 141.471 32.966 141.02C33.8847 140.552 34.9247 140.318 36.086 140.318C37.2473 140.318 38.296 140.526 39.232 140.942C40.1853 141.358 40.9913 141.921 41.65 142.632C42.3087 143.325 42.794 144.123 43.106 145.024L40.922 145.934C40.506 144.842 39.882 144.019 39.05 143.464C38.218 142.892 37.2387 142.606 36.112 142.606C35.4187 142.606 34.8033 142.727 34.266 142.97C33.746 143.195 33.3387 143.533 33.044 143.984C32.7667 144.417 32.628 144.937 32.628 145.544C32.628 146.255 32.8533 146.887 33.304 147.442C33.7547 147.997 34.4393 148.421 35.358 148.716L38.608 149.678C40.1333 150.146 41.286 150.813 42.066 151.68C42.846 152.547 43.236 153.621 43.236 154.904C43.236 155.961 42.9587 156.897 42.404 157.712C41.8667 158.527 41.1127 159.168 40.142 159.636C39.1887 160.087 38.0793 160.312 36.814 160.312ZM35.644 162.6V138.03H37.594V162.6H35.644ZM46.2126 160V158.232L51.5686 152.434C52.6259 151.307 53.4666 150.38 54.0906 149.652C54.7319 148.924 55.1999 148.274 55.4946 147.702C55.7893 147.13 55.9366 146.523 55.9366 145.882C55.9366 144.825 55.6246 144.01 55.0006 143.438C54.3766 142.866 53.5533 142.58 52.5306 142.58C51.4906 142.58 50.6066 142.883 49.8786 143.49C49.1506 144.079 48.6479 144.92 48.3706 146.012L46.0566 145.414C46.2819 144.374 46.6979 143.473 47.3046 142.71C47.9113 141.947 48.6653 141.358 49.5666 140.942C50.4679 140.526 51.4559 140.318 52.5306 140.318C53.7093 140.318 54.7406 140.552 55.6246 141.02C56.5259 141.471 57.2279 142.103 57.7306 142.918C58.2506 143.733 58.5106 144.677 58.5106 145.752C58.5106 146.463 58.3633 147.156 58.0686 147.832C57.7739 148.508 57.3406 149.227 56.7686 149.99C56.1966 150.735 55.4513 151.602 54.5326 152.59L49.7486 157.79H58.9266V160H46.2126ZM63.701 160L70.383 151.29L70.851 151.342C70.591 151.689 70.305 151.966 69.993 152.174C69.681 152.365 69.3344 152.503 68.953 152.59C68.589 152.677 68.1904 152.72 67.757 152.72C66.613 152.72 65.5817 152.46 64.663 151.94C63.7617 151.403 63.0424 150.675 62.505 149.756C61.985 148.82 61.725 147.754 61.725 146.558C61.725 145.362 62.0024 144.296 62.557 143.36C63.1117 142.424 63.8744 141.687 64.845 141.15C65.8157 140.595 66.9077 140.318 68.121 140.318C69.369 140.318 70.4697 140.595 71.423 141.15C72.3937 141.687 73.1564 142.441 73.711 143.412C74.2657 144.365 74.543 145.466 74.543 146.714C74.543 147.39 74.465 148.057 74.309 148.716C74.153 149.375 73.9017 150.042 73.555 150.718C73.2257 151.394 72.7837 152.096 72.229 152.824L66.769 160H63.701ZM68.121 150.484C68.8664 150.484 69.525 150.319 70.097 149.99C70.6864 149.643 71.1457 149.175 71.475 148.586C71.8044 147.979 71.969 147.303 71.969 146.558C71.969 145.778 71.7957 145.093 71.449 144.504C71.1197 143.915 70.669 143.447 70.097 143.1C69.525 142.753 68.8664 142.58 68.121 142.58C67.393 142.58 66.743 142.753 66.171 143.1C65.599 143.447 65.1397 143.915 64.793 144.504C64.4637 145.093 64.299 145.778 64.299 146.558C64.299 147.303 64.4637 147.979 64.793 148.586C65.1224 149.175 65.573 149.643 66.145 149.99C66.7344 150.319 67.393 150.484 68.121 150.484ZM79.2655 160L85.9475 151.29L86.4155 151.342C86.1555 151.689 85.8695 151.966 85.5575 152.174C85.2455 152.365 84.8988 152.503 84.5175 152.59C84.1535 152.677 83.7548 152.72 83.3215 152.72C82.1775 152.72 81.1462 152.46 80.2275 151.94C79.3262 151.403 78.6068 150.675 78.0695 149.756C77.5495 148.82 77.2895 147.754 77.2895 146.558C77.2895 145.362 77.5668 144.296 78.1215 143.36C78.6762 142.424 79.4388 141.687 80.4095 141.15C81.3802 140.595 82.4722 140.318 83.6855 140.318C84.9335 140.318 86.0342 140.595 86.9875 141.15C87.9582 141.687 88.7208 142.441 89.2755 143.412C89.8302 144.365 90.1075 145.466 90.1075 146.714C90.1075 147.39 90.0295 148.057 89.8735 148.716C89.7175 149.375 89.4662 150.042 89.1195 150.718C88.7902 151.394 88.3482 152.096 87.7935 152.824L82.3335 160H79.2655ZM83.6855 150.484C84.4308 150.484 85.0895 150.319 85.6615 149.99C86.2508 149.643 86.7102 149.175 87.0395 148.586C87.3688 147.979 87.5335 147.303 87.5335 146.558C87.5335 145.778 87.3602 145.093 87.0135 144.504C86.6842 143.915 86.2335 143.447 85.6615 143.1C85.0895 142.753 84.4308 142.58 83.6855 142.58C82.9575 142.58 82.3075 142.753 81.7355 143.1C81.1635 143.447 80.7042 143.915 80.3575 144.504C80.0282 145.093 79.8635 145.778 79.8635 146.558C79.8635 147.303 80.0282 147.979 80.3575 148.586C80.6868 149.175 81.1375 149.643 81.7095 149.99C82.2988 150.319 82.9575 150.484 83.6855 150.484ZM93.7272 160V156.88H96.2492V160H93.7272ZM102.447 160L109.129 151.29L109.597 151.342C109.337 151.689 109.051 151.966 108.739 152.174C108.427 152.365 108.08 152.503 107.699 152.59C107.335 152.677 106.936 152.72 106.503 152.72C105.359 152.72 104.328 152.46 103.409 151.94C102.508 151.403 101.788 150.675 101.251 149.756C100.731 148.82 100.471 147.754 100.471 146.558C100.471 145.362 100.748 144.296 101.303 143.36C101.858 142.424 102.62 141.687 103.591 141.15C104.562 140.595 105.654 140.318 106.867 140.318C108.115 140.318 109.216 140.595 110.169 141.15C111.14 141.687 111.902 142.441 112.457 143.412C113.012 144.365 113.289 145.466 113.289 146.714C113.289 147.39 113.211 148.057 113.055 148.716C112.899 149.375 112.648 150.042 112.301 150.718C111.972 151.394 111.53 152.096 110.975 152.824L105.515 160H102.447ZM106.867 150.484C107.612 150.484 108.271 150.319 108.843 149.99C109.432 149.643 109.892 149.175 110.221 148.586C110.55 147.979 110.715 147.303 110.715 146.558C110.715 145.778 110.542 145.093 110.195 144.504C109.866 143.915 109.415 143.447 108.843 143.1C108.271 142.753 107.612 142.58 106.867 142.58C106.139 142.58 105.489 142.753 104.917 143.1C104.345 143.447 103.886 143.915 103.539 144.504C103.21 145.093 103.045 145.778 103.045 146.558C103.045 147.303 103.21 147.979 103.539 148.586C103.868 149.175 104.319 149.643 104.891 149.99C105.48 150.319 106.139 150.484 106.867 150.484ZM118.012 160L124.694 151.29L125.162 151.342C124.902 151.689 124.616 151.966 124.304 152.174C123.992 152.365 123.645 152.503 123.264 152.59C122.9 152.677 122.501 152.72 122.068 152.72C120.924 152.72 119.892 152.46 118.974 151.94C118.072 151.403 117.353 150.675 116.816 149.756C116.296 148.82 116.036 147.754 116.036 146.558C116.036 145.362 116.313 144.296 116.868 143.36C117.422 142.424 118.185 141.687 119.156 141.15C120.126 140.595 121.218 140.318 122.432 140.318C123.68 140.318 124.78 140.595 125.734 141.15C126.704 141.687 127.467 142.441 128.022 143.412C128.576 144.365 128.854 145.466 128.854 146.714C128.854 147.39 128.776 148.057 128.62 148.716C128.464 149.375 128.212 150.042 127.866 150.718C127.536 151.394 127.094 152.096 126.54 152.824L121.08 160H118.012ZM122.432 150.484C123.177 150.484 123.836 150.319 124.408 149.99C124.997 149.643 125.456 149.175 125.786 148.586C126.115 147.979 126.28 147.303 126.28 146.558C126.28 145.778 126.106 145.093 125.76 144.504C125.43 143.915 124.98 143.447 124.408 143.1C123.836 142.753 123.177 142.58 122.432 142.58C121.704 142.58 121.054 142.753 120.482 143.1C119.91 143.447 119.45 143.915 119.104 144.504C118.774 145.093 118.61 145.778 118.61 146.558C118.61 147.303 118.774 147.979 119.104 148.586C119.433 149.175 119.884 149.643 120.456 149.99C121.045 150.319 121.704 150.484 122.432 150.484Z" fill="#43008F"/>
<path d="M34.816 220.192C33.9733 220.192 33.1947 220.043 32.48 219.744C31.776 219.435 31.1573 219.003 30.624 218.448C30.1013 217.893 29.696 217.243 29.408 216.496C29.12 215.749 28.976 214.933 28.976 214.048C28.976 213.152 29.12 212.331 29.408 211.584C29.696 210.837 30.1013 210.187 30.624 209.632C31.1467 209.077 31.7653 208.651 32.48 208.352C33.1947 208.043 33.9733 207.888 34.816 207.888C35.6373 207.888 36.3733 208.032 37.024 208.32C37.6853 208.608 38.24 208.981 38.688 209.44C39.1467 209.899 39.472 210.389 39.664 210.912L38.224 211.568C37.9467 210.907 37.5147 210.373 36.928 209.968C36.3413 209.552 35.6373 209.344 34.816 209.344C33.984 209.344 33.2427 209.541 32.592 209.936C31.952 210.331 31.4507 210.88 31.088 211.584C30.7253 212.288 30.544 213.109 30.544 214.048C30.544 214.976 30.7253 215.792 31.088 216.496C31.4507 217.2 31.952 217.749 32.592 218.144C33.2427 218.539 33.984 218.736 34.816 218.736C35.6373 218.736 36.3413 218.533 36.928 218.128C37.5147 217.712 37.9467 217.173 38.224 216.512L39.664 217.168C39.472 217.691 39.1467 218.181 38.688 218.64C38.24 219.099 37.6853 219.472 37.024 219.76C36.3733 220.048 35.6373 220.192 34.816 220.192ZM45.5605 220.192C44.7285 220.192 43.9765 220 43.3045 219.616C42.6325 219.221 42.0992 218.683 41.7045 218C41.3098 217.317 41.1125 216.544 41.1125 215.68C41.1125 214.816 41.3045 214.048 41.6885 213.376C42.0832 212.704 42.6165 212.171 43.2885 211.776C43.9605 211.381 44.7178 211.184 45.5605 211.184C46.3925 211.184 47.1445 211.381 47.8165 211.776C48.4885 212.16 49.0165 212.688 49.4005 213.36C49.7952 214.032 49.9925 214.805 49.9925 215.68C49.9925 216.555 49.7898 217.333 49.3845 218.016C48.9792 218.688 48.4405 219.221 47.7685 219.616C47.1072 220 46.3712 220.192 45.5605 220.192ZM45.5605 218.752C46.0938 218.752 46.5738 218.619 47.0005 218.352C47.4378 218.085 47.7792 217.717 48.0245 217.248C48.2805 216.779 48.4085 216.256 48.4085 215.68C48.4085 215.093 48.2805 214.576 48.0245 214.128C47.7792 213.669 47.4378 213.307 47.0005 213.04C46.5738 212.763 46.0938 212.624 45.5605 212.624C45.0165 212.624 44.5258 212.763 44.0885 213.04C43.6618 213.307 43.3205 213.669 43.0645 214.128C42.8085 214.576 42.6805 215.093 42.6805 215.68C42.6805 216.256 42.8085 216.779 43.0645 217.248C43.3205 217.717 43.6618 218.085 44.0885 218.352C44.5258 218.619 45.0165 218.752 45.5605 218.752ZM51.9333 220V211.376H53.3893V213.056L53.1493 212.912C53.3626 212.368 53.7039 211.947 54.1733 211.648C54.6533 211.339 55.2133 211.184 55.8533 211.184C56.4719 211.184 57.0213 211.323 57.5013 211.6C57.9919 211.877 58.3759 212.261 58.6533 212.752C58.9413 213.243 59.0853 213.797 59.0853 214.416V220H57.5813V214.896C57.5813 214.416 57.4959 214.011 57.3253 213.68C57.1546 213.349 56.9093 213.093 56.5893 212.912C56.2799 212.72 55.9226 212.624 55.5173 212.624C55.1119 212.624 54.7493 212.72 54.4293 212.912C54.1199 213.093 53.8746 213.355 53.6933 213.696C53.5119 214.027 53.4213 214.427 53.4213 214.896V220H51.9333ZM64.3025 220.192C63.4385 220.192 62.6865 219.979 62.0465 219.552C61.4065 219.125 60.9532 218.549 60.6865 217.824L61.8705 217.248C62.1158 217.76 62.4518 218.165 62.8785 218.464C63.3052 218.763 63.7798 218.912 64.3025 218.912C64.7718 218.912 65.1612 218.8 65.4705 218.576C65.7798 218.352 65.9345 218.059 65.9345 217.696C65.9345 217.44 65.8598 217.237 65.7105 217.088C65.5718 216.928 65.4012 216.805 65.1985 216.72C64.9958 216.624 64.8092 216.555 64.6385 216.512L63.3425 216.144C62.5638 215.92 61.9932 215.6 61.6305 215.184C61.2785 214.768 61.1025 214.283 61.1025 213.728C61.1025 213.216 61.2305 212.773 61.4865 212.4C61.7532 212.016 62.1105 211.717 62.5585 211.504C63.0172 211.291 63.5292 211.184 64.0945 211.184C64.8518 211.184 65.5292 211.376 66.1265 211.76C66.7345 212.144 67.1665 212.683 67.4225 213.376L66.2065 213.936C66.0145 213.488 65.7265 213.136 65.3425 212.88C64.9585 212.613 64.5265 212.48 64.0465 212.48C63.6092 212.48 63.2625 212.592 63.0065 212.816C62.7505 213.029 62.6225 213.301 62.6225 213.632C62.6225 213.877 62.6865 214.08 62.8145 214.24C62.9425 214.389 63.0972 214.507 63.2785 214.592C63.4598 214.667 63.6358 214.731 63.8065 214.784L65.2145 215.2C65.9185 215.403 66.4625 215.717 66.8465 216.144C67.2412 216.571 67.4385 217.083 67.4385 217.68C67.4385 218.16 67.3052 218.592 67.0385 218.976C66.7718 219.36 66.4038 219.659 65.9345 219.872C65.4652 220.085 64.9212 220.192 64.3025 220.192ZM72.4424 220.192C71.8237 220.192 71.2637 220.048 70.7624 219.76C70.2717 219.472 69.8877 219.072 69.6104 218.56C69.3437 218.037 69.2104 217.44 69.2104 216.768V211.376H70.6984V216.608C70.6984 217.035 70.7837 217.408 70.9544 217.728C71.1357 218.048 71.381 218.299 71.6904 218.48C72.0104 218.661 72.373 218.752 72.7784 218.752C73.1837 218.752 73.541 218.661 73.8504 218.48C74.1704 218.299 74.4157 218.037 74.5864 217.696C74.7677 217.355 74.8584 216.949 74.8584 216.48V211.376H76.3624V220H74.9064V218.32L75.1464 218.464C74.9437 219.008 74.597 219.435 74.1064 219.744C73.6264 220.043 73.0717 220.192 72.4424 220.192ZM78.6676 220V207.888H80.1556V220H78.6676ZM85.9685 220.096C85.1258 220.096 84.4752 219.856 84.0165 219.376C83.5685 218.896 83.3445 218.219 83.3445 217.344V212.8H81.7765V211.376H82.0965C82.4805 211.376 82.7845 211.259 83.0085 211.024C83.2325 210.789 83.3445 210.48 83.3445 210.096V209.392H84.8325V211.376H86.7685V212.8H84.8325V217.296C84.8325 217.584 84.8752 217.835 84.9605 218.048C85.0565 218.261 85.2112 218.432 85.4245 218.56C85.6378 218.677 85.9205 218.736 86.2725 218.736C86.3472 218.736 86.4378 218.731 86.5445 218.72C86.6618 218.709 86.7685 218.699 86.8645 218.688V220C86.7258 220.032 86.5712 220.053 86.4005 220.064C86.2298 220.085 86.0858 220.096 85.9685 220.096ZM91.2269 220.192C90.6615 220.192 90.1602 220.091 89.7229 219.888C89.2962 219.675 88.9602 219.387 88.7149 219.024C88.4695 218.651 88.3469 218.224 88.3469 217.744C88.3469 217.285 88.4429 216.875 88.6349 216.512C88.8375 216.139 89.1469 215.824 89.5629 215.568C89.9895 215.312 90.5229 215.131 91.1629 215.024L94.3629 214.496V215.744L91.4989 216.224C90.9442 216.32 90.5389 216.496 90.2829 216.752C90.0375 217.008 89.9149 217.323 89.9149 217.696C89.9149 218.048 90.0535 218.341 90.3309 218.576C90.6189 218.811 90.9762 218.928 91.4029 218.928C91.9469 218.928 92.4162 218.816 92.8109 218.592C93.2162 218.357 93.5309 218.043 93.7549 217.648C93.9895 217.253 94.1069 216.816 94.1069 216.336V214.144C94.1069 213.675 93.9309 213.296 93.5789 213.008C93.2375 212.709 92.7842 212.56 92.2189 212.56C91.7282 212.56 91.2909 212.688 90.9069 212.944C90.5335 213.189 90.2562 213.52 90.0749 213.936L88.7789 213.264C88.9389 212.869 89.1949 212.517 89.5469 212.208C89.8989 211.888 90.3095 211.637 90.7789 211.456C91.2482 211.275 91.7389 211.184 92.2509 211.184C92.9122 211.184 93.4935 211.312 93.9949 211.568C94.4962 211.813 94.8855 212.16 95.1629 212.608C95.4509 213.045 95.5949 213.557 95.5949 214.144V220H94.1389V218.368L94.4109 218.464C94.2295 218.805 93.9842 219.104 93.6749 219.36C93.3655 219.616 93.0029 219.819 92.5869 219.968C92.1709 220.117 91.7175 220.192 91.2269 220.192ZM101.25 220.096C100.407 220.096 99.7564 219.856 99.2978 219.376C98.8498 218.896 98.6258 218.219 98.6258 217.344V212.8H97.0578V211.376H97.3778C97.7618 211.376 98.0658 211.259 98.2898 211.024C98.5138 210.789 98.6258 210.48 98.6258 210.096V209.392H100.114V211.376H102.05V212.8H100.114V217.296C100.114 217.584 100.156 217.835 100.242 218.048C100.338 218.261 100.492 218.432 100.706 218.56C100.919 218.677 101.202 218.736 101.554 218.736C101.628 218.736 101.719 218.731 101.826 218.72C101.943 218.709 102.05 218.699 102.146 218.688V220C102.007 220.032 101.852 220.053 101.682 220.064C101.511 220.085 101.367 220.096 101.25 220.096ZM104.09 220V211.376H105.578V220H104.09ZM104.09 210V208.08H105.578V210H104.09ZM111.982 220.192C111.15 220.192 110.398 220 109.726 219.616C109.054 219.221 108.521 218.683 108.126 218C107.732 217.317 107.534 216.544 107.534 215.68C107.534 214.816 107.726 214.048 108.11 213.376C108.505 212.704 109.038 212.171 109.71 211.776C110.382 211.381 111.14 211.184 111.982 211.184C112.814 211.184 113.566 211.381 114.238 211.776C114.91 212.16 115.438 212.688 115.822 213.36C116.217 214.032 116.414 214.805 116.414 215.68C116.414 216.555 116.212 217.333 115.806 218.016C115.401 218.688 114.862 219.221 114.19 219.616C113.529 220 112.793 220.192 111.982 220.192ZM111.982 218.752C112.516 218.752 112.996 218.619 113.422 218.352C113.86 218.085 114.201 217.717 114.446 217.248C114.702 216.779 114.83 216.256 114.83 215.68C114.83 215.093 114.702 214.576 114.446 214.128C114.201 213.669 113.86 213.307 113.422 213.04C112.996 212.763 112.516 212.624 111.982 212.624C111.438 212.624 110.948 212.763 110.51 213.04C110.084 213.307 109.742 213.669 109.486 214.128C109.23 214.576 109.102 215.093 109.102 215.68C109.102 216.256 109.23 216.779 109.486 217.248C109.742 217.717 110.084 218.085 110.51 218.352C110.948 218.619 111.438 218.752 111.982 218.752ZM118.355 220V211.376H119.811V213.056L119.571 212.912C119.784 212.368 120.126 211.947 120.595 211.648C121.075 211.339 121.635 211.184 122.275 211.184C122.894 211.184 123.443 211.323 123.923 211.6C124.414 211.877 124.798 212.261 125.075 212.752C125.363 213.243 125.507 213.797 125.507 214.416V220H124.003V214.896C124.003 214.416 123.918 214.011 123.747 213.68C123.576 213.349 123.331 213.093 123.011 212.912C122.702 212.72 122.344 212.624 121.939 212.624C121.534 212.624 121.171 212.72 120.851 212.912C120.542 213.093 120.296 213.355 120.115 213.696C119.934 214.027 119.843 214.427 119.843 214.896V220H118.355ZM130.578 220V208.08H138.13V209.52H132.146V213.376H137.57V214.816H132.146V220H130.578ZM143.433 220.192C142.601 220.192 141.859 219.995 141.209 219.6C140.558 219.205 140.046 218.667 139.673 217.984C139.299 217.291 139.113 216.517 139.113 215.664C139.113 214.8 139.294 214.032 139.657 213.36C140.03 212.688 140.531 212.16 141.161 211.776C141.801 211.381 142.515 211.184 143.305 211.184C143.945 211.184 144.51 211.301 145.001 211.536C145.502 211.76 145.923 212.069 146.265 212.464C146.617 212.848 146.883 213.291 147.065 213.792C147.257 214.283 147.352 214.795 147.352 215.328C147.352 215.445 147.342 215.579 147.321 215.728C147.31 215.867 147.294 216 147.273 216.128H140.201V214.848H146.409L145.705 215.424C145.801 214.869 145.747 214.373 145.545 213.936C145.342 213.499 145.043 213.152 144.649 212.896C144.254 212.64 143.806 212.512 143.305 212.512C142.803 212.512 142.345 212.64 141.929 212.896C141.513 213.152 141.187 213.52 140.953 214C140.729 214.469 140.638 215.029 140.681 215.68C140.638 216.309 140.734 216.864 140.969 217.344C141.214 217.813 141.555 218.181 141.993 218.448C142.441 218.704 142.926 218.832 143.449 218.832C144.025 218.832 144.51 218.699 144.905 218.432C145.299 218.165 145.619 217.824 145.865 217.408L147.113 218.048C146.942 218.443 146.675 218.805 146.312 219.136C145.961 219.456 145.539 219.712 145.049 219.904C144.569 220.096 144.03 220.192 143.433 220.192ZM153.261 220.192C152.429 220.192 151.687 219.995 151.037 219.6C150.386 219.205 149.874 218.667 149.501 217.984C149.127 217.291 148.941 216.517 148.941 215.664C148.941 214.8 149.122 214.032 149.485 213.36C149.858 212.688 150.359 212.16 150.989 211.776C151.629 211.381 152.343 211.184 153.133 211.184C153.773 211.184 154.338 211.301 154.829 211.536C155.33 211.76 155.751 212.069 156.093 212.464C156.445 212.848 156.711 213.291 156.893 213.792C157.085 214.283 157.181 214.795 157.181 215.328C157.181 215.445 157.17 215.579 157.149 215.728C157.138 215.867 157.122 216 157.101 216.128H150.029V214.848H156.237L155.533 215.424C155.629 214.869 155.575 214.373 155.373 213.936C155.17 213.499 154.871 213.152 154.477 212.896C154.082 212.64 153.634 212.512 153.133 212.512C152.631 212.512 152.173 212.64 151.757 212.896C151.341 213.152 151.015 213.52 150.781 214C150.557 214.469 150.466 215.029 150.509 215.68C150.466 216.309 150.562 216.864 150.797 217.344C151.042 217.813 151.383 218.181 151.821 218.448C152.269 218.704 152.754 218.832 153.277 218.832C153.853 218.832 154.338 218.699 154.733 218.432C155.127 218.165 155.447 217.824 155.693 217.408L156.941 218.048C156.77 218.443 156.503 218.805 156.141 219.136C155.789 219.456 155.367 219.712 154.877 219.904C154.397 220.096 153.858 220.192 153.261 220.192Z" fill="#232324"/>
<path d="M511.816 220.192C510.973 220.192 510.195 220.043 509.48 219.744C508.776 219.435 508.157 219.003 507.624 218.448C507.101 217.893 506.696 217.243 506.408 216.496C506.12 215.749 505.976 214.933 505.976 214.048C505.976 213.152 506.12 212.331 506.408 211.584C506.696 210.837 507.101 210.187 507.624 209.632C508.147 209.077 508.765 208.651 509.48 208.352C510.195 208.043 510.973 207.888 511.816 207.888C512.637 207.888 513.373 208.032 514.024 208.32C514.685 208.608 515.24 208.981 515.688 209.44C516.147 209.899 516.472 210.389 516.664 210.912L515.224 211.568C514.947 210.907 514.515 210.373 513.928 209.968C513.341 209.552 512.637 209.344 511.816 209.344C510.984 209.344 510.243 209.541 509.592 209.936C508.952 210.331 508.451 210.88 508.088 211.584C507.725 212.288 507.544 213.109 507.544 214.048C507.544 214.976 507.725 215.792 508.088 216.496C508.451 217.2 508.952 217.749 509.592 218.144C510.243 218.539 510.984 218.736 511.816 218.736C512.637 218.736 513.341 218.533 513.928 218.128C514.515 217.712 514.947 217.173 515.224 216.512L516.664 217.168C516.472 217.691 516.147 218.181 515.688 218.64C515.24 219.099 514.685 219.472 514.024 219.76C513.373 220.048 512.637 220.192 511.816 220.192ZM522.561 220.192C521.729 220.192 520.977 220 520.305 219.616C519.633 219.221 519.099 218.683 518.705 218C518.31 217.317 518.113 216.544 518.113 215.68C518.113 214.816 518.305 214.048 518.689 213.376C519.083 212.704 519.617 212.171 520.289 211.776C520.961 211.381 521.718 211.184 522.561 211.184C523.393 211.184 524.145 211.381 524.817 211.776C525.489 212.16 526.017 212.688 526.401 213.36C526.795 214.032 526.993 214.805 526.993 215.68C526.993 216.555 526.79 217.333 526.385 218.016C525.979 218.688 525.441 219.221 524.769 219.616C524.107 220 523.371 220.192 522.561 220.192ZM522.561 218.752C523.094 218.752 523.574 218.619 524.001 218.352C524.438 218.085 524.779 217.717 525.025 217.248C525.281 216.779 525.409 216.256 525.409 215.68C525.409 215.093 525.281 214.576 525.025 214.128C524.779 213.669 524.438 213.307 524.001 213.04C523.574 212.763 523.094 212.624 522.561 212.624C522.017 212.624 521.526 212.763 521.089 213.04C520.662 213.307 520.321 213.669 520.065 214.128C519.809 214.576 519.681 215.093 519.681 215.68C519.681 216.256 519.809 216.779 520.065 217.248C520.321 217.717 520.662 218.085 521.089 218.352C521.526 218.619 522.017 218.752 522.561 218.752ZM531.177 220L527.801 211.376H529.465L532.169 218.672H531.593L534.313 211.376H535.977L532.585 220H531.177ZM541.12 220.192C540.288 220.192 539.547 219.995 538.896 219.6C538.245 219.205 537.733 218.667 537.36 217.984C536.987 217.291 536.8 216.517 536.8 215.664C536.8 214.8 536.981 214.032 537.344 213.36C537.717 212.688 538.219 212.16 538.848 211.776C539.488 211.381 540.203 211.184 540.992 211.184C541.632 211.184 542.197 211.301 542.688 211.536C543.189 211.76 543.611 212.069 543.952 212.464C544.304 212.848 544.571 213.291 544.752 213.792C544.944 214.283 545.04 214.795 545.04 215.328C545.04 215.445 545.029 215.579 545.008 215.728C544.997 215.867 544.981 216 544.96 216.128H537.888V214.848H544.096L543.392 215.424C543.488 214.869 543.435 214.373 543.232 213.936C543.029 213.499 542.731 213.152 542.336 212.896C541.941 212.64 541.493 212.512 540.992 212.512C540.491 212.512 540.032 212.64 539.616 212.896C539.2 213.152 538.875 213.52 538.64 214C538.416 214.469 538.325 215.029 538.368 215.68C538.325 216.309 538.421 216.864 538.656 217.344C538.901 217.813 539.243 218.181 539.68 218.448C540.128 218.704 540.613 218.832 541.136 218.832C541.712 218.832 542.197 218.699 542.592 218.432C542.987 218.165 543.307 217.824 543.552 217.408L544.8 218.048C544.629 218.443 544.363 218.805 544 219.136C543.648 219.456 543.227 219.712 542.736 219.904C542.256 220.096 541.717 220.192 541.12 220.192ZM546.98 220V211.376H548.436V212.96L548.276 212.736C548.479 212.245 548.788 211.883 549.204 211.648C549.62 211.403 550.127 211.28 550.724 211.28H551.252V212.688H550.5C549.892 212.688 549.401 212.88 549.028 213.264C548.655 213.637 548.468 214.171 548.468 214.864V220H546.98ZM556.542 220.192C555.71 220.192 554.969 219.995 554.318 219.6C553.667 219.205 553.155 218.667 552.782 217.984C552.409 217.291 552.222 216.517 552.222 215.664C552.222 214.8 552.403 214.032 552.766 213.36C553.139 212.688 553.641 212.16 554.27 211.776C554.91 211.381 555.625 211.184 556.414 211.184C557.054 211.184 557.619 211.301 558.11 211.536C558.611 211.76 559.033 212.069 559.374 212.464C559.726 212.848 559.993 213.291 560.174 213.792C560.366 214.283 560.462 214.795 560.462 215.328C560.462 215.445 560.451 215.579 560.43 215.728C560.419 215.867 560.403 216 560.382 216.128H553.31V214.848H559.518L558.814 215.424C558.91 214.869 558.857 214.373 558.654 213.936C558.451 213.499 558.153 213.152 557.758 212.896C557.363 212.64 556.915 212.512 556.414 212.512C555.913 212.512 555.454 212.64 555.038 212.896C554.622 213.152 554.297 213.52 554.062 214C553.838 214.469 553.747 215.029 553.79 215.68C553.747 216.309 553.843 216.864 554.078 217.344C554.323 217.813 554.665 218.181 555.102 218.448C555.55 218.704 556.035 218.832 556.558 218.832C557.134 218.832 557.619 218.699 558.014 218.432C558.409 218.165 558.729 217.824 558.974 217.408L560.222 218.048C560.051 218.443 559.785 218.805 559.422 219.136C559.07 219.456 558.649 219.712 558.158 219.904C557.678 220.096 557.139 220.192 556.542 220.192ZM566.322 220.192C565.511 220.192 564.781 219.995 564.13 219.6C563.49 219.205 562.983 218.667 562.61 217.984C562.237 217.301 562.05 216.539 562.05 215.696C562.05 214.832 562.237 214.064 562.61 213.392C562.983 212.709 563.49 212.171 564.13 211.776C564.781 211.381 565.511 211.184 566.322 211.184C567.037 211.184 567.671 211.339 568.226 211.648C568.781 211.947 569.218 212.352 569.538 212.864L569.298 213.232V207.888H570.802V220H569.346V218.16L569.538 218.416C569.239 218.981 568.802 219.419 568.226 219.728C567.661 220.037 567.026 220.192 566.322 220.192ZM566.45 218.752C566.994 218.752 567.479 218.619 567.906 218.352C568.333 218.085 568.669 217.723 568.914 217.264C569.17 216.795 569.298 216.272 569.298 215.696C569.298 215.109 569.17 214.587 568.914 214.128C568.669 213.659 568.333 213.291 567.906 213.024C567.479 212.757 566.994 212.624 566.45 212.624C565.917 212.624 565.431 212.763 564.994 213.04C564.567 213.307 564.231 213.669 563.986 214.128C563.741 214.576 563.618 215.099 563.618 215.696C563.618 216.272 563.741 216.795 563.986 217.264C564.231 217.723 564.567 218.085 564.994 218.352C565.421 218.619 565.906 218.752 566.45 218.752Z" fill="#232324"/>
<path d="M29.328 268V256.08H33.536C34.3253 256.08 35.0187 256.229 35.616 256.528C36.2133 256.827 36.6773 257.253 37.008 257.808C37.3493 258.363 37.52 259.013 37.52 259.76C37.52 260.507 37.3493 261.157 37.008 261.712C36.6773 262.256 36.2133 262.683 35.616 262.992C35.0293 263.291 34.336 263.44 33.536 263.44H30.896V268H29.328ZM30.896 262H33.584C34.064 262 34.48 261.909 34.832 261.728C35.184 261.547 35.456 261.285 35.648 260.944C35.84 260.603 35.936 260.208 35.936 259.76C35.936 259.301 35.84 258.907 35.648 258.576C35.456 258.235 35.184 257.973 34.832 257.792C34.48 257.611 34.064 257.52 33.584 257.52H30.896V262ZM39.4645 268V259.376H40.9205V260.96L40.7605 260.736C40.9632 260.245 41.2725 259.883 41.6885 259.648C42.1045 259.403 42.6112 259.28 43.2085 259.28H43.7365V260.688H42.9845C42.3765 260.688 41.8858 260.88 41.5125 261.264C41.1392 261.637 40.9525 262.171 40.9525 262.864V268H39.4645ZM49.0263 268.192C48.1943 268.192 47.4529 267.995 46.8023 267.6C46.1516 267.205 45.6396 266.667 45.2663 265.984C44.8929 265.291 44.7063 264.517 44.7063 263.664C44.7063 262.8 44.8876 262.032 45.2503 261.36C45.6236 260.688 46.1249 260.16 46.7543 259.776C47.3943 259.381 48.1089 259.184 48.8983 259.184C49.5383 259.184 50.1036 259.301 50.5943 259.536C51.0956 259.76 51.5169 260.069 51.8583 260.464C52.2103 260.848 52.4769 261.291 52.6583 261.792C52.8503 262.283 52.9462 262.795 52.9462 263.328C52.9462 263.445 52.9356 263.579 52.9143 263.728C52.9036 263.867 52.8876 264 52.8663 264.128H45.7943V262.848H52.0023L51.2983 263.424C51.3943 262.869 51.3409 262.373 51.1383 261.936C50.9356 261.499 50.6369 261.152 50.2423 260.896C49.8476 260.64 49.3996 260.512 48.8983 260.512C48.3969 260.512 47.9383 260.64 47.5223 260.896C47.1063 261.152 46.7809 261.52 46.5463 262C46.3223 262.469 46.2316 263.029 46.2743 263.68C46.2316 264.309 46.3276 264.864 46.5623 265.344C46.8076 265.813 47.1489 266.181 47.5863 266.448C48.0343 266.704 48.5196 266.832 49.0423 266.832C49.6183 266.832 50.1036 266.699 50.4983 266.432C50.8929 266.165 51.2129 265.824 51.4583 265.408L52.7063 266.048C52.5356 266.443 52.2689 266.805 51.9062 267.136C51.5543 267.456 51.1329 267.712 50.6423 267.904C50.1623 268.096 49.6236 268.192 49.0263 268.192ZM57.9744 268.192C57.1104 268.192 56.3584 267.979 55.7184 267.552C55.0784 267.125 54.625 266.549 54.3584 265.824L55.5424 265.248C55.7877 265.76 56.1237 266.165 56.5504 266.464C56.977 266.763 57.4517 266.912 57.9744 266.912C58.4437 266.912 58.833 266.8 59.1424 266.576C59.4517 266.352 59.6064 266.059 59.6064 265.696C59.6064 265.44 59.5317 265.237 59.3824 265.088C59.2437 264.928 59.073 264.805 58.8704 264.72C58.6677 264.624 58.481 264.555 58.3104 264.512L57.0144 264.144C56.2357 263.92 55.665 263.6 55.3024 263.184C54.9504 262.768 54.7744 262.283 54.7744 261.728C54.7744 261.216 54.9024 260.773 55.1584 260.4C55.425 260.016 55.7824 259.717 56.2304 259.504C56.689 259.291 57.201 259.184 57.7664 259.184C58.5237 259.184 59.201 259.376 59.7984 259.76C60.4064 260.144 60.8384 260.683 61.0944 261.376L59.8784 261.936C59.6864 261.488 59.3984 261.136 59.0144 260.88C58.6304 260.613 58.1984 260.48 57.7184 260.48C57.281 260.48 56.9344 260.592 56.6784 260.816C56.4224 261.029 56.2944 261.301 56.2944 261.632C56.2944 261.877 56.3584 262.08 56.4864 262.24C56.6144 262.389 56.769 262.507 56.9504 262.592C57.1317 262.667 57.3077 262.731 57.4784 262.784L58.8864 263.2C59.5904 263.403 60.1344 263.717 60.5184 264.144C60.913 264.571 61.1104 265.083 61.1104 265.68C61.1104 266.16 60.977 266.592 60.7104 266.976C60.4437 267.36 60.0757 267.659 59.6064 267.872C59.137 268.085 58.593 268.192 57.9744 268.192ZM67.0583 268.192C66.2156 268.192 65.4636 267.995 64.8023 267.6C64.1516 267.205 63.6396 266.667 63.2663 265.984C62.8929 265.301 62.7063 264.533 62.7063 263.68C62.7063 262.816 62.8929 262.048 63.2663 261.376C63.6396 260.704 64.1516 260.171 64.8023 259.776C65.4636 259.381 66.2156 259.184 67.0583 259.184C67.6236 259.184 68.1516 259.285 68.6423 259.488C69.1329 259.691 69.5649 259.963 69.9383 260.304C70.3116 260.645 70.5836 261.045 70.7543 261.504L69.4263 262.144C69.2236 261.696 68.9143 261.333 68.4983 261.056C68.0823 260.768 67.6023 260.624 67.0583 260.624C66.5356 260.624 66.0609 260.757 65.6343 261.024C65.2183 261.291 64.8876 261.653 64.6423 262.112C64.3969 262.571 64.2743 263.099 64.2743 263.696C64.2743 264.272 64.3969 264.795 64.6423 265.264C64.8876 265.723 65.2183 266.085 65.6343 266.352C66.0609 266.619 66.5356 266.752 67.0583 266.752C67.6023 266.752 68.0823 266.613 68.4983 266.336C68.9143 266.048 69.2236 265.669 69.4263 265.2L70.7543 265.872C70.5836 266.32 70.3116 266.72 69.9383 267.072C69.5649 267.413 69.1329 267.685 68.6423 267.888C68.1516 268.091 67.6236 268.192 67.0583 268.192ZM72.6989 268V259.376H74.1549V260.96L73.9949 260.736C74.1975 260.245 74.5069 259.883 74.9229 259.648C75.3389 259.403 75.8455 259.28 76.4429 259.28H76.9709V260.688H76.2189C75.6109 260.688 75.1202 260.88 74.7469 261.264C74.3735 261.637 74.1869 262.171 74.1869 262.864V268H72.6989ZM78.2926 268V259.376H79.7806V268H78.2926ZM78.2926 258V256.08H79.7806V258H78.2926ZM82.0895 271.2V259.376H83.5455V261.232L83.3535 260.864C83.6735 260.352 84.1108 259.947 84.6655 259.648C85.2202 259.339 85.8548 259.184 86.5695 259.184C87.3802 259.184 88.1055 259.381 88.7455 259.776C89.3962 260.171 89.9082 260.709 90.2815 261.392C90.6548 262.064 90.8415 262.832 90.8415 263.696C90.8415 264.539 90.6548 265.301 90.2815 265.984C89.9082 266.667 89.3962 267.205 88.7455 267.6C88.1055 267.995 87.3748 268.192 86.5535 268.192C85.8602 268.192 85.2255 268.037 84.6495 267.728C84.0842 267.419 83.6468 266.981 83.3375 266.416L83.5775 266.16V271.2H82.0895ZM86.4415 266.752C86.9855 266.752 87.4708 266.619 87.8975 266.352C88.3242 266.085 88.6548 265.723 88.8895 265.264C89.1348 264.795 89.2575 264.272 89.2575 263.696C89.2575 263.099 89.1348 262.576 88.8895 262.128C88.6548 261.669 88.3242 261.307 87.8975 261.04C87.4708 260.763 86.9855 260.624 86.4415 260.624C85.8975 260.624 85.4068 260.757 84.9695 261.024C84.5428 261.291 84.2015 261.659 83.9455 262.128C83.7002 262.587 83.5775 263.109 83.5775 263.696C83.5775 264.272 83.7002 264.795 83.9455 265.264C84.2015 265.723 84.5428 266.085 84.9695 266.352C85.4068 266.619 85.8975 266.752 86.4415 266.752ZM96.1404 268.096C95.2977 268.096 94.647 267.856 94.1884 267.376C93.7404 266.896 93.5164 266.219 93.5164 265.344V260.8H91.9484V259.376H92.2684C92.6524 259.376 92.9564 259.259 93.1804 259.024C93.4044 258.789 93.5164 258.48 93.5164 258.096V257.392H95.0044V259.376H96.9404V260.8H95.0044V265.296C95.0044 265.584 95.047 265.835 95.1324 266.048C95.2284 266.261 95.383 266.432 95.5964 266.56C95.8097 266.677 96.0924 266.736 96.4444 266.736C96.519 266.736 96.6097 266.731 96.7164 266.72C96.8337 266.709 96.9404 266.699 97.0364 266.688V268C96.8977 268.032 96.743 268.053 96.5724 268.064C96.4017 268.085 96.2577 268.096 96.1404 268.096ZM98.9801 268V259.376H100.468V268H98.9801ZM98.9801 258V256.08H100.468V258H98.9801ZM106.873 268.192C106.041 268.192 105.289 268 104.617 267.616C103.945 267.221 103.412 266.683 103.017 266C102.622 265.317 102.425 264.544 102.425 263.68C102.425 262.816 102.617 262.048 103.001 261.376C103.396 260.704 103.929 260.171 104.601 259.776C105.273 259.381 106.03 259.184 106.873 259.184C107.705 259.184 108.457 259.381 109.129 259.776C109.801 260.16 110.329 260.688 110.713 261.36C111.108 262.032 111.305 262.805 111.305 263.68C111.305 264.555 111.102 265.333 110.697 266.016C110.292 266.688 109.753 267.221 109.081 267.616C108.42 268 107.684 268.192 106.873 268.192ZM106.873 266.752C107.406 266.752 107.886 266.619 108.313 266.352C108.75 266.085 109.092 265.717 109.337 265.248C109.593 264.779 109.721 264.256 109.721 263.68C109.721 263.093 109.593 262.576 109.337 262.128C109.092 261.669 108.75 261.307 108.313 261.04C107.886 260.763 107.406 260.624 106.873 260.624C106.329 260.624 105.838 260.763 105.401 261.04C104.974 261.307 104.633 261.669 104.377 262.128C104.121 262.576 103.993 263.093 103.993 263.68C103.993 264.256 104.121 264.779 104.377 265.248C104.633 265.717 104.974 266.085 105.401 266.352C105.838 266.619 106.329 266.752 106.873 266.752ZM113.246 268V259.376H114.702V261.056L114.462 260.912C114.675 260.368 115.016 259.947 115.486 259.648C115.966 259.339 116.526 259.184 117.166 259.184C117.784 259.184 118.334 259.323 118.814 259.6C119.304 259.877 119.688 260.261 119.966 260.752C120.254 261.243 120.398 261.797 120.398 262.416V268H118.894V262.896C118.894 262.416 118.808 262.011 118.638 261.68C118.467 261.349 118.222 261.093 117.902 260.912C117.592 260.72 117.235 260.624 116.83 260.624C116.424 260.624 116.062 260.72 115.742 260.912C115.432 261.093 115.187 261.355 115.006 261.696C114.824 262.027 114.734 262.427 114.734 262.896V268H113.246ZM125.469 268V256.08H133.021V257.52H127.037V261.376H132.461V262.816H127.037V268H125.469ZM138.323 268.192C137.491 268.192 136.75 267.995 136.099 267.6C135.448 267.205 134.936 266.667 134.563 265.984C134.19 265.291 134.003 264.517 134.003 263.664C134.003 262.8 134.184 262.032 134.547 261.36C134.92 260.688 135.422 260.16 136.051 259.776C136.691 259.381 137.406 259.184 138.195 259.184C138.835 259.184 139.4 259.301 139.891 259.536C140.392 259.76 140.814 260.069 141.155 260.464C141.507 260.848 141.774 261.291 141.955 261.792C142.147 262.283 142.243 262.795 142.243 263.328C142.243 263.445 142.232 263.579 142.211 263.728C142.2 263.867 142.184 264 142.163 264.128H135.091V262.848H141.299L140.595 263.424C140.691 262.869 140.638 262.373 140.435 261.936C140.232 261.499 139.934 261.152 139.539 260.896C139.144 260.64 138.696 260.512 138.195 260.512C137.694 260.512 137.235 260.64 136.819 260.896C136.403 261.152 136.078 261.52 135.843 262C135.619 262.469 135.528 263.029 135.571 263.68C135.528 264.309 135.624 264.864 135.859 265.344C136.104 265.813 136.446 266.181 136.883 266.448C137.331 266.704 137.816 266.832 138.339 266.832C138.915 266.832 139.4 266.699 139.795 266.432C140.19 266.165 140.51 265.824 140.755 265.408L142.003 266.048C141.832 266.443 141.566 266.805 141.203 267.136C140.851 267.456 140.43 267.712 139.939 267.904C139.459 268.096 138.92 268.192 138.323 268.192ZM148.151 268.192C147.319 268.192 146.578 267.995 145.927 267.6C145.277 267.205 144.765 266.667 144.391 265.984C144.018 265.291 143.831 264.517 143.831 263.664C143.831 262.8 144.013 262.032 144.375 261.36C144.749 260.688 145.25 260.16 145.879 259.776C146.519 259.381 147.234 259.184 148.023 259.184C148.663 259.184 149.229 259.301 149.719 259.536C150.221 259.76 150.642 260.069 150.983 260.464C151.335 260.848 151.602 261.291 151.783 261.792C151.975 262.283 152.071 262.795 152.071 263.328C152.071 263.445 152.061 263.579 152.039 263.728C152.029 263.867 152.013 264 151.991 264.128H144.919V262.848H151.127L150.423 263.424C150.519 262.869 150.466 262.373 150.263 261.936C150.061 261.499 149.762 261.152 149.367 260.896C148.973 260.64 148.525 260.512 148.023 260.512C147.522 260.512 147.063 260.64 146.647 260.896C146.231 261.152 145.906 261.52 145.671 262C145.447 262.469 145.357 263.029 145.399 263.68C145.357 264.309 145.453 264.864 145.687 265.344C145.933 265.813 146.274 266.181 146.711 266.448C147.159 266.704 147.645 266.832 148.167 266.832C148.743 266.832 149.229 266.699 149.623 266.432C150.018 266.165 150.338 265.824 150.583 265.408L151.831 266.048C151.661 266.443 151.394 266.805 151.031 267.136C150.679 267.456 150.258 267.712 149.767 267.904C149.287 268.096 148.749 268.192 148.151 268.192Z" fill="#232324"/>
<path d="M511.816 268.192C510.973 268.192 510.195 268.043 509.48 267.744C508.776 267.435 508.157 267.003 507.624 266.448C507.101 265.893 506.696 265.243 506.408 264.496C506.12 263.749 505.976 262.933 505.976 262.048C505.976 261.152 506.12 260.331 506.408 259.584C506.696 258.837 507.101 258.187 507.624 257.632C508.147 257.077 508.765 256.651 509.48 256.352C510.195 256.043 510.973 255.888 511.816 255.888C512.637 255.888 513.373 256.032 514.024 256.32C514.685 256.608 515.24 256.981 515.688 257.44C516.147 257.899 516.472 258.389 516.664 258.912L515.224 259.568C514.947 258.907 514.515 258.373 513.928 257.968C513.341 257.552 512.637 257.344 511.816 257.344C510.984 257.344 510.243 257.541 509.592 257.936C508.952 258.331 508.451 258.88 508.088 259.584C507.725 260.288 507.544 261.109 507.544 262.048C507.544 262.976 507.725 263.792 508.088 264.496C508.451 265.2 508.952 265.749 509.592 266.144C510.243 266.539 510.984 266.736 511.816 266.736C512.637 266.736 513.341 266.533 513.928 266.128C514.515 265.712 514.947 265.173 515.224 264.512L516.664 265.168C516.472 265.691 516.147 266.181 515.688 266.64C515.24 267.099 514.685 267.472 514.024 267.76C513.373 268.048 512.637 268.192 511.816 268.192ZM522.561 268.192C521.729 268.192 520.977 268 520.305 267.616C519.633 267.221 519.099 266.683 518.705 266C518.31 265.317 518.113 264.544 518.113 263.68C518.113 262.816 518.305 262.048 518.689 261.376C519.083 260.704 519.617 260.171 520.289 259.776C520.961 259.381 521.718 259.184 522.561 259.184C523.393 259.184 524.145 259.381 524.817 259.776C525.489 260.16 526.017 260.688 526.401 261.36C526.795 262.032 526.993 262.805 526.993 263.68C526.993 264.555 526.79 265.333 526.385 266.016C525.979 266.688 525.441 267.221 524.769 267.616C524.107 268 523.371 268.192 522.561 268.192ZM522.561 266.752C523.094 266.752 523.574 266.619 524.001 266.352C524.438 266.085 524.779 265.717 525.025 265.248C525.281 264.779 525.409 264.256 525.409 263.68C525.409 263.093 525.281 262.576 525.025 262.128C524.779 261.669 524.438 261.307 524.001 261.04C523.574 260.763 523.094 260.624 522.561 260.624C522.017 260.624 521.526 260.763 521.089 261.04C520.662 261.307 520.321 261.669 520.065 262.128C519.809 262.576 519.681 263.093 519.681 263.68C519.681 264.256 519.809 264.779 520.065 265.248C520.321 265.717 520.662 266.085 521.089 266.352C521.526 266.619 522.017 266.752 522.561 266.752ZM531.177 268L527.801 259.376H529.465L532.169 266.672H531.593L534.313 259.376H535.977L532.585 268H531.177ZM541.12 268.192C540.288 268.192 539.547 267.995 538.896 267.6C538.245 267.205 537.733 266.667 537.36 265.984C536.987 265.291 536.8 264.517 536.8 263.664C536.8 262.8 536.981 262.032 537.344 261.36C537.717 260.688 538.219 260.16 538.848 259.776C539.488 259.381 540.203 259.184 540.992 259.184C541.632 259.184 542.197 259.301 542.688 259.536C543.189 259.76 543.611 260.069 543.952 260.464C544.304 260.848 544.571 261.291 544.752 261.792C544.944 262.283 545.04 262.795 545.04 263.328C545.04 263.445 545.029 263.579 545.008 263.728C544.997 263.867 544.981 264 544.96 264.128H537.888V262.848H544.096L543.392 263.424C543.488 262.869 543.435 262.373 543.232 261.936C543.029 261.499 542.731 261.152 542.336 260.896C541.941 260.64 541.493 260.512 540.992 260.512C540.491 260.512 540.032 260.64 539.616 260.896C539.2 261.152 538.875 261.52 538.64 262C538.416 262.469 538.325 263.029 538.368 263.68C538.325 264.309 538.421 264.864 538.656 265.344C538.901 265.813 539.243 266.181 539.68 266.448C540.128 266.704 540.613 266.832 541.136 266.832C541.712 266.832 542.197 266.699 542.592 266.432C542.987 266.165 543.307 265.824 543.552 265.408L544.8 266.048C544.629 266.443 544.363 266.805 544 267.136C543.648 267.456 543.227 267.712 542.736 267.904C542.256 268.096 541.717 268.192 541.12 268.192ZM546.98 268V259.376H548.436V260.96L548.276 260.736C548.479 260.245 548.788 259.883 549.204 259.648C549.62 259.403 550.127 259.28 550.724 259.28H551.252V260.688H550.5C549.892 260.688 549.401 260.88 549.028 261.264C548.655 261.637 548.468 262.171 548.468 262.864V268H546.98ZM556.542 268.192C555.71 268.192 554.969 267.995 554.318 267.6C553.667 267.205 553.155 266.667 552.782 265.984C552.409 265.291 552.222 264.517 552.222 263.664C552.222 262.8 552.403 262.032 552.766 261.36C553.139 260.688 553.641 260.16 554.27 259.776C554.91 259.381 555.625 259.184 556.414 259.184C557.054 259.184 557.619 259.301 558.11 259.536C558.611 259.76 559.033 260.069 559.374 260.464C559.726 260.848 559.993 261.291 560.174 261.792C560.366 262.283 560.462 262.795 560.462 263.328C560.462 263.445 560.451 263.579 560.43 263.728C560.419 263.867 560.403 264 560.382 264.128H553.31V262.848H559.518L558.814 263.424C558.91 262.869 558.857 262.373 558.654 261.936C558.451 261.499 558.153 261.152 557.758 260.896C557.363 260.64 556.915 260.512 556.414 260.512C555.913 260.512 555.454 260.64 555.038 260.896C554.622 261.152 554.297 261.52 554.062 262C553.838 262.469 553.747 263.029 553.79 263.68C553.747 264.309 553.843 264.864 554.078 265.344C554.323 265.813 554.665 266.181 555.102 266.448C555.55 266.704 556.035 266.832 556.558 266.832C557.134 266.832 557.619 266.699 558.014 266.432C558.409 266.165 558.729 265.824 558.974 265.408L560.222 266.048C560.051 266.443 559.785 266.805 559.422 267.136C559.07 267.456 558.649 267.712 558.158 267.904C557.678 268.096 557.139 268.192 556.542 268.192ZM566.322 268.192C565.511 268.192 564.781 267.995 564.13 267.6C563.49 267.205 562.983 266.667 562.61 265.984C562.237 265.301 562.05 264.539 562.05 263.696C562.05 262.832 562.237 262.064 562.61 261.392C562.983 260.709 563.49 260.171 564.13 259.776C564.781 259.381 565.511 259.184 566.322 259.184C567.037 259.184 567.671 259.339 568.226 259.648C568.781 259.947 569.218 260.352 569.538 260.864L569.298 261.232V255.888H570.802V268H569.346V266.16L569.538 266.416C569.239 266.981 568.802 267.419 568.226 267.728C567.661 268.037 567.026 268.192 566.322 268.192ZM566.45 266.752C566.994 266.752 567.479 266.619 567.906 266.352C568.333 266.085 568.669 265.723 568.914 265.264C569.17 264.795 569.298 264.272 569.298 263.696C569.298 263.109 569.17 262.587 568.914 262.128C568.669 261.659 568.333 261.291 567.906 261.024C567.479 260.757 566.994 260.624 566.45 260.624C565.917 260.624 565.431 260.763 564.994 261.04C564.567 261.307 564.231 261.669 563.986 262.128C563.741 262.576 563.618 263.099 563.618 263.696C563.618 264.272 563.741 264.795 563.986 265.264C564.231 265.723 564.567 266.085 564.994 266.352C565.421 266.619 565.906 266.752 566.45 266.752Z" fill="#232324"/>
<circle opacity="0.5" cx="572" cy="-18" r="102.5" stroke="#00698F"/>
<circle opacity="0.5" cx="588.845" cy="-5.15458" r="102.5" transform="rotate(27.3998 588.845 -5.15458)" stroke="#00698F"/>
</g>
<defs>
<clipPath id="clip0_3034_10732">
<rect width="600" height="471" fill="white"/>
</clipPath>
</defs>
</svg>
