<svg width="183" height="608" viewBox="0 0 183 608" fill="none" xmlns="http://www.w3.org/2000/svg">
<g opacity="0.7">
<path d="M181 108C181 114.627 175.627 120 169 120L133 120C126.373 120 121 114.627 121 108L121 60L169 60C175.627 60 181 65.3726 181 72L181 108Z" fill="#FDFCFF"/>
<path d="M183 596C183 602.627 177.627 608 171 608H135C128.373 608 123 602.627 123 596L123 548H171C177.627 548 183 553.373 183 560L183 596Z" fill="#FDFCFF"/>
<path d="M61 12C61 5.37258 66.3726 0 73 0L109 0C115.627 0 121 5.37258 121 12V60H73C66.3726 60 61 54.6274 61 48V12Z" fill="#FDFCFF"/>
<path d="M43 192C43 185.373 48.3726 180 55 180H91C97.6274 180 103 185.373 103 192V228C103 234.627 97.6274 240 91 240H43V192Z" fill="#FDFCFF"/>
<path d="M-17 252C-17 245.373 -11.6274 240 -5 240H31C37.6274 240 43 245.373 43 252V300H-5C-11.6274 300 -17 294.627 -17 288V252Z" fill="#FDFCFF"/>
<path d="M-17 366C-17 359.373 -11.6274 354 -5 354H31C37.6274 354 43 359.373 43 366V414H-5C-11.6274 414 -17 408.627 -17 402V366Z" fill="#FDFCFF"/>
<rect x="-39" y="488" width="162" height="60" fill="#FDFCFF"/>
<path d="M123 300C123 293.373 128.373 288 135 288H171C177.627 288 183 293.373 183 300V476C183 482.627 177.627 488 171 488H123V300Z" fill="#FDFCFF"/>
</g>
</svg>
