<svg width="184" height="704" viewBox="0 0 184 704" fill="none" xmlns="http://www.w3.org/2000/svg">
<g opacity="0.7">
<path d="M0 12C0 5.37258 5.37258 0 12 0H48C54.6274 0 60 5.37258 60 12V200H12C5.37258 200 0 194.627 0 188V12Z" fill="#FDFCFF"/>
<path d="M132 692C132 698.627 126.627 704 120 704H84C77.3726 704 72 698.627 72 692L72 567C72 560.373 77.3726 555 84 555H132L132 692Z" fill="#FDFCFF"/>
<path d="M120 248C120 254.627 114.627 260 108 260H72C65.3726 260 60 254.627 60 248L60 200L108 200C114.627 200 120 205.373 120 212L120 248Z" fill="#FDFCFF"/>
<path d="M188 304C188 310.627 182.627 316 176 316H140C133.373 316 128 310.627 128 304L128 256H176C182.627 256 188 261.373 188 268L188 304Z" fill="#FDFCFF"/>
<path d="M176 496C182.627 496 188 501.373 188 508V544C188 550.627 182.627 556 176 556H128V508C128 501.373 133.373 496 140 496H176Z" fill="#FDFCFF"/>
<path d="M48 495C54.6274 495 60 500.373 60 507L60 555H12C5.37258 555 0 549.627 0 543L0 507C0 500.373 5.37258 495 12 495H48Z" fill="#FDFCFF"/>
<rect x="60" y="376" width="220" height="60" rx="12" fill="#FDFCFF"/>
</g>
</svg>
