<svg width="20" height="20" viewBox="0 0 20 20" fill="none" xmlns="http://www.w3.org/2000/svg">
<path d="M3.55 9.18353V13.3252C3.55 14.8419 3.55 14.8419 4.98334 15.8085L8.925 18.0835C9.51667 18.4252 10.4833 18.4252 11.075 18.0835L15.0167 15.8085C16.45 14.8419 16.45 14.8419 16.45 13.3252V9.18353C16.45 7.66686 16.45 7.66686 15.0167 6.7002L11.075 4.4252C10.4833 4.08353 9.51667 4.08353 8.925 4.4252L4.98334 6.7002C3.55 7.66686 3.55 7.66686 3.55 9.18353Z" stroke="#4F5E71" stroke-opacity="0.7" stroke-linecap="round" stroke-linejoin="round"/>
<path d="M14.5833 6.35817V4.1665C14.5833 2.49984 13.75 1.6665 12.0833 1.6665H7.91666C6.25 1.6665 5.41666 2.49984 5.41666 4.1665V6.29984" stroke="#4F5E71" stroke-opacity="0.7" stroke-linecap="round" stroke-linejoin="round"/>
<path d="M10.525 9.1583L11 9.89997C11.075 10.0166 11.2417 10.1333 11.3667 10.1666L12.2167 10.3833C12.7417 10.5166 12.8833 10.9666 12.5417 11.3833L11.9833 12.0583C11.9 12.1666 11.8333 12.3583 11.8417 12.4916L11.8917 13.3666C11.925 13.9083 11.5417 14.1833 11.0417 13.9833L10.225 13.6583C10.1 13.6083 9.89167 13.6083 9.76667 13.6583L8.95 13.9833C8.45 14.1833 8.06667 13.9 8.1 13.3666L8.15 12.4916C8.15834 12.3583 8.09167 12.1583 8.00834 12.0583L7.45 11.3833C7.10834 10.9666 7.25 10.5166 7.775 10.3833L8.625 10.1666C8.75834 10.1333 8.925 10.0083 8.99167 9.89997L9.46667 9.1583C9.76667 8.7083 10.2333 8.7083 10.525 9.1583Z" stroke="#4F5E71" stroke-opacity="0.7" stroke-linecap="round" stroke-linejoin="round"/>
</svg>
